SplineFontDB: 3.0
FontName: Bodoni-11-Bold
FullName: Bodoni* 11 Bold
FamilyName: Bodoni* 11
Weight: Bold
Copyright: Copyright (c) 2017, Owen Earl,,, (EwonRael@yahoo.com)
Version: 001.0
ItalicAngle: 0
UnderlinePosition: -408
UnderlineWidth: 204
Ascent: 3276
Descent: 820
InvalidEm: 0
LayerCount: 2
Layer: 0 0 "Back" 1
Layer: 1 0 "Fore" 0
PreferredKerning: 4
XUID: [1021 31 -699969567 16487490]
FSType: 0
OS2Version: 0
OS2_WeightWidthSlopeOnly: 0
OS2_UseTypoMetrics: 1
CreationTime: 1460762150
ModificationTime: 1573585190
PfmFamily: 17
TTFWeight: 700
TTFWidth: 5
LineGap: 0
VLineGap: 0
OS2TypoAscent: 4194
OS2TypoAOffset: 0
OS2TypoDescent: -820
OS2TypoDOffset: 0
OS2TypoLinegap: 0
OS2WinAscent: 4096
OS2WinAOffset: 0
OS2WinDescent: 1638
OS2WinDOffset: 0
HheadAscent: 4194
HheadAOffset: 0
HheadDescent: -820
HheadDOffset: 0
OS2CapHeight: 3072
OS2XHeight: 1884
OS2FamilyClass: 768
OS2Vendor: 'it* '
OS2UnicodeRanges: 00000001.00000000.00000000.00000000
Lookup: 1 0 0 "'ss02' Style Set 2 lookup 4" { "'ss02' Style Set 2 lookup 4-1"  } ['ss02' ('DFLT' <'dflt' > 'grek' <'dflt' > 'latn' <'dflt' > ) ]
Lookup: 1 0 0 "'ss03' Style Set 3 lookup 5" { "'ss03' Style Set 3 lookup 5-1"  } ['ss03' ('DFLT' <'dflt' > 'grek' <'dflt' > 'latn' <'dflt' > ) ]
Lookup: 1 0 0 "'ss01' Style Set 1 lookup 2" { "'ss01' Style Set 1 lookup 2-1"  } ['ss01' ('DFLT' <'dflt' > 'grek' <'dflt' > 'latn' <'dflt' > ) ]
Lookup: 5 0 0 "'calt' Contextual Alternates lookup 3" { "'calt' Contextual Alternates lookup 3-1"  } ['calt' ('DFLT' <'dflt' > 'grek' <'dflt' > 'latn' <'dflt' > ) ]
Lookup: 4 0 1 "'liga' Standard Ligatures lookup 0" { "'liga' Standard Ligatures lookup 0-1"  } ['liga' ('DFLT' <'dflt' > 'grek' <'dflt' > 'latn' <'dflt' > ) ]
Lookup: 258 0 0 "'kern' Horizontal Kerning lookup 0" { "kerning like they all do" [150,0,6] } ['kern' ('DFLT' <'dflt' > 'grek' <'dflt' > 'latn' <'dflt' > ) ]
MarkAttachClasses: 1
DEI: 91125
KernClass2: 31 27 "kerning like they all do"

StartChar: ampersand
Encoding: 38 38 0
GlifName: ampersand
Width: 3528
Flags: HMW
LayerCount: 2
Fore
SplineSet
1672 1858 m 9
 1635 1922 l 1
 1751 2001 1908 2145 1908 2611 c 0
 1908 2845 1854 3052 1624 3052 c 0
 1400 3052 1316 2878 1316 2682 c 0
 1316 2518 1438 2270 1614 2008 c 2
 2892 82 l 1
 3416 82 l 1
 3416 0 l 1
 2212 0 l 1
 856 2008 l 2
 750 2164 668 2366 668 2510 c 0
 668 2878 1056 3112 1634 3112 c 0
 2175 3112 2524 2917 2524 2610 c 0
 2524 2230 2136 2026 1672 1858 c 9
1108 1688 m 1
 1140 1624 l 1
 944 1516 814 1378 814 1047 c 0
 814 563 1062 158 1512 158 c 0
 2194 158 2838 972 2932 1844 c 1
 3014 1844 l 1
 2904 946 2261 -40 1163 -40 c 0
 515 -40 159 274 159 722 c 0
 159 1365 932 1606 1108 1688 c 1
2392 1884 m 1
 3374 1884 l 1
 3374 1802 l 1
 2392 1802 l 1
 2392 1884 l 1
EndSplineSet
EndChar

StartChar: period
Encoding: 46 46 1
GlifName: period
Width: 1064
Flags: HMW
LayerCount: 2
Fore
SplineSet
164 328 m 0
 164 530 330 696 532 696 c 0
 734 696 901 530 901 328 c 0
 901 126 734 -41 532 -41 c 0
 330 -41 164 126 164 328 c 0
EndSplineSet
EndChar

StartChar: zero
Encoding: 48 48 2
GlifName: zero
Width: 2703
Flags: HMW
LayerCount: 2
Fore
SplineSet
1352 -41 m 0
 643 -41 164 644 164 1536 c 0
 164 2428 684 3113 1352 3113 c 0
 2020 3113 2540 2428 2540 1536 c 0
 2540 644 2061 -41 1352 -41 c 0
1352 3043 m 0
 967 3043 880 2384 880 1536 c 0
 880 688 926 29 1352 29 c 0
 1778 29 1823 688 1823 1536 c 0
 1823 2384 1758 3043 1352 3043 c 0
EndSplineSet
EndChar

StartChar: one
Encoding: 49 49 3
GlifName: one
Width: 2027
VWidth: 4730
Flags: HMW
LayerCount: 2
Fore
SplineSet
205 82 m 1
 1822 82 l 1
 1822 0 l 1
 205 0 l 1
 205 82 l 1
274 3072 m 1
 1372 3072 l 1
 1372 41 l 1
 737 41 l 1
 737 2990 l 1
 274 2990 l 1
 274 3072 l 1
EndSplineSet
EndChar

StartChar: two
Encoding: 50 50 4
GlifName: two
Width: 2457
VWidth: 4730
Flags: HMW
LayerCount: 2
Fore
SplineSet
2314 0 m 1
 164 0 l 1
 164 410 l 1
 1022 1112 l 2
 1360 1388 1573 1725 1573 2171 c 0
 1573 2679 1334 2925 954 2925 c 0
 590 2925 323 2650 307 2294 c 1
 352 2408 478 2507 610 2507 c 0
 811 2507 975 2358 975 2154 c 0
 975 1928 778 1780 574 1780 c 0
 370 1780 205 1933 205 2249 c 0
 205 2728 585 3113 1228 3113 c 0
 1867 3113 2228 2765 2228 2335 c 0
 2228 1864 1872 1637 1569 1409 c 2
 610 614 l 1
 2232 614 l 1
 2232 922 l 1
 2314 922 l 1
 2314 0 l 1
EndSplineSet
EndChar

StartChar: three
Encoding: 51 51 5
GlifName: three
Width: 2338
VWidth: 4730
Flags: HMW
LayerCount: 2
Fore
SplineSet
2175 840 m 0
 2175 288 1666 -41 1048 -41 c 0
 404 -41 102 324 102 660 c 0
 102 890 256 1038 460 1038 c 0
 644 1038 784 906 784 698 c 0
 784 506 618 369 438 369 c 0
 352 369 303 402 287 406 c 1
 369 250 578 82 926 82 c 0
 1372 82 1516 394 1516 840 c 0
 1516 1204 1401 1622 811 1622 c 1
 811 1679 l 1
 1839 1679 2175 1312 2175 840 c 0
811 1642 m 1
 811 1700 l 1
 1359 1700 1393 2139 1393 2421 c 0
 1393 2745 1250 2992 967 2992 c 0
 729 2992 574 2878 492 2790 c 1
 510 2794 537 2802 582 2802 c 0
 742 2802 897 2678 897 2484 c 0
 897 2269 726 2142 562 2142 c 0
 378 2142 225 2259 225 2478 c 0
 225 2834 651 3109 1069 3109 c 0
 1605 3109 2052 2851 2052 2400 c 0
 2052 1990 1798 1642 811 1642 c 1
EndSplineSet
EndChar

StartChar: four
Encoding: 52 52 6
GlifName: four
Width: 2621
VWidth: 4730
Flags: HMW
LayerCount: 2
Fore
SplineSet
2437 82 m 1
 2437 0 l 1
 1106 0 l 1
 1106 82 l 1
 1495 82 l 1
 1495 2683 l 1
 299 922 l 1
 2580 922 l 1
 2580 840 l 1
 143 840 l 1
 1659 3072 l 1
 2130 3072 l 1
 2130 82 l 1
 2437 82 l 1
EndSplineSet
Substitution2: "'ss03' Style Set 3 lookup 5-1" four.alt
EndChar

StartChar: five
Encoding: 53 53 7
GlifName: five
Width: 2191
VWidth: 4730
Flags: HMW
LayerCount: 2
Fore
SplineSet
1925 2458 m 1
 315 2458 l 1
 315 1462 l 1
 234 1462 l 1
 234 3072 l 1
 1844 3072 l 1
 1844 3297 l 1
 1925 3297 l 1
 1925 2458 l 1
307 262 m 1
 348 188 540 53 782 53 c 0
 1228 53 1392 445 1392 912 c 0
 1392 1461 1224 1740 880 1740 c 0
 614 1740 426 1597 344 1462 c 1
 274 1462 l 1
 360 1654 598 1864 1032 1864 c 0
 1650 1864 2068 1526 2068 912 c 0
 2068 360 1565 -41 885 -41 c 0
 447 -41 41 192 41 569 c 0
 41 799 203 946 397 946 c 0
 581 946 754 830 754 604 c 0
 754 400 577 246 397 246 c 0
 352 246 332 254 307 262 c 1
EndSplineSet
EndChar

StartChar: six
Encoding: 54 54 8
GlifName: six
Width: 2498
VWidth: 4730
Flags: HMW
LayerCount: 2
Fore
SplineSet
1700 1024 m 0
 1700 1676 1548 1888 1286 1888 c 0
 1048 1888 880 1679 880 1147 c 1
 824 1147 l 1
 824 1647 922 2018 1418 2018 c 0
 1873 2018 2376 1720 2376 1024 c 0
 2376 410 1965 -41 1306 -41 c 0
 647 -41 205 410 205 1270 c 0
 205 2265 991 3113 2068 3113 c 1
 2068 3043 l 1
 1334 3043 880 2221 880 1516 c 1
 880 1147 l 1
 880 495 995 41 1319 41 c 0
 1643 41 1700 454 1700 1024 c 0
EndSplineSet
EndChar

StartChar: seven
Encoding: 55 55 9
GlifName: seven
Width: 2211
VWidth: 4730
Flags: HMW
LayerCount: 2
Fore
SplineSet
606 372 m 0
 606 696 945 1088 1225 1528 c 0
 1371 1766 1534 2081 1722 2437 c 1
 246 2437 l 1
 246 2130 l 1
 164 2130 l 1
 164 3072 l 1
 2171 3072 l 1
 2171 3072 1662 2086 1344 1548 c 0
 1142 1200 1116 1110 1116 950 c 0
 1116 692 1384 630 1384 340 c 0
 1384 127 1241 -41 999 -41 c 0
 777 -41 606 68 606 372 c 0
EndSplineSet
EndChar

StartChar: eight
Encoding: 56 56 10
GlifName: eight
Width: 2457
VWidth: 4730
Flags: HMW
LayerCount: 2
Fore
SplineSet
901 2294 m 0
 901 1848 986 1618 1228 1618 c 0
 1470 1618 1556 1848 1556 2294 c 0
 1556 2720 1470 3031 1228 3031 c 0
 986 3031 901 2720 901 2294 c 0
246 2294 m 0
 246 2745 589 3113 1228 3113 c 0
 1867 3113 2212 2745 2212 2294 c 0
 2212 1843 1867 1556 1228 1556 c 0
 589 1556 246 1843 246 2294 c 0
819 778 m 0
 819 352 924 41 1228 41 c 0
 1532 41 1638 352 1638 778 c 0
 1638 1204 1532 1536 1228 1536 c 0
 924 1536 819 1204 819 778 c 0
164 778 m 0
 164 1270 508 1597 1228 1597 c 0
 1948 1597 2294 1270 2294 778 c 0
 2294 286 1948 -41 1228 -41 c 0
 508 -41 164 286 164 778 c 0
EndSplineSet
EndChar

StartChar: A
Encoding: 65 65 12
GlifName: A_
Width: 3204
Flags: HMW
LayerCount: 2
Fore
SplineSet
72 82 m 1
 973 82 l 1
 973 0 l 1
 72 0 l 1
 72 82 l 1
1751 82 m 1
 3144 82 l 1
 3144 0 l 1
 1751 0 l 1
 1751 82 l 1
768 1044 m 1
 2120 1044 l 1
 2120 963 l 1
 768 963 l 1
 768 1044 l 1
1329 2439 m 1
 477 0 l 1
 375 0 l 1
 1485 3133 l 1
 1772 3133 l 1
 2857 0 l 1
 2120 0 l 1
 1329 2439 l 1
EndSplineSet
EndChar

StartChar: B
Encoding: 66 66 13
GlifName: B_
Width: 2856
Flags: HMW
LayerCount: 2
Fore
SplineSet
1464 1556 m 2
 972 1556 l 1
 972 1618 l 1
 1382 1618 l 2
 1672 1618 1915 1786 1915 2273 c 0
 1915 2760 1672 2990 1382 2990 c 2
 72 2990 l 1
 72 3072 l 1
 1464 3072 l 2
 2144 3072 2570 2846 2570 2314 c 0
 2570 1802 2184 1556 1464 1556 c 2
440 3072 m 1
 1076 3072 l 1
 1076 0 l 1
 440 0 l 1
 440 3072 l 1
1546 0 m 2
 72 0 l 1
 72 82 l 1
 1424 82 l 2
 1756 82 1997 373 1997 860 c 0
 1997 1347 1756 1536 1424 1536 c 2
 972 1536 l 1
 972 1597 l 1
 1546 1597 l 2
 2185 1597 2694 1392 2694 819 c 0
 2694 225 2266 0 1546 0 c 2
EndSplineSet
EndChar

StartChar: C
Encoding: 67 67 14
GlifName: C_
Width: 2877
Flags: HMW
LayerCount: 2
Fore
SplineSet
2611 3072 m 1
 2673 3072 l 1
 2673 2170 l 1
 2545 2403 2429 2645 2263 2846 c 1
 2611 3072 l 1
2673 2170 m 1
 2591 2170 l 1
 2407 2670 2116 3000 1690 3000 c 0
 1080 3000 890 2281 890 1536 c 0
 890 791 1080 72 1690 72 c 0
 2218 72 2448 443 2632 902 c 1
 2714 902 l 1
 2591 357 2234 -41 1648 -41 c 0
 735 -41 174 623 174 1536 c 0
 174 2449 735 3113 1648 3113 c 0
 2172 3113 2529 2715 2673 2170 c 1
2714 902 m 1
 2714 0 l 1
 2652 0 l 1
 2304 246 l 1
 2488 473 2608 662 2714 902 c 1
EndSplineSet
EndChar

StartChar: D
Encoding: 68 68 15
GlifName: D_
Width: 3102
Flags: HMW
LayerCount: 2
Fore
SplineSet
440 3072 m 1
 1076 3072 l 1
 1076 0 l 1
 440 0 l 1
 440 3072 l 1
1382 0 m 2
 72 0 l 1
 72 82 l 1
 1382 82 l 2
 2013 82 2222 730 2222 1536 c 0
 2222 2342 1972 2990 1382 2990 c 2
 72 2990 l 1
 72 3072 l 1
 1382 3072 l 2
 2356 3072 2938 2449 2938 1536 c 0
 2938 623 2316 0 1382 0 c 2
EndSplineSet
EndChar

StartChar: E
Encoding: 69 69 16
GlifName: E_
Width: 2570
Flags: HMW
LayerCount: 2
Fore
SplineSet
2366 922 m 1
 2447 922 l 1
 2447 0 l 1
 72 0 l 1
 72 82 l 1
 1506 82 l 2
 2067 82 2304 402 2366 922 c 1
440 3072 m 1
 1076 3072 l 1
 1076 0 l 1
 440 0 l 1
 440 3072 l 1
72 3072 m 1
 2406 3072 l 1
 2406 2232 l 1
 2324 2232 l 1
 2262 2670 2025 2990 1546 2990 c 2
 72 2990 l 1
 72 3072 l 1
1690 1078 m 1
 1628 1352 1451 1548 1218 1548 c 2
 932 1548 l 1
 932 1630 l 1
 1218 1630 l 2
 1451 1630 1628 1806 1690 2080 c 1
 1772 2080 l 1
 1772 1078 l 1
 1690 1078 l 1
EndSplineSet
EndChar

StartChar: F
Encoding: 70 70 17
GlifName: F_
Width: 2467
Flags: HMW
LayerCount: 2
Fore
SplineSet
72 3072 m 1
 2345 3072 l 1
 2345 2232 l 1
 2263 2232 l 1
 2201 2670 2004 2990 1546 2990 c 2
 72 2990 l 1
 72 3072 l 1
72 82 m 1
 1484 82 l 1
 1484 0 l 1
 72 0 l 1
 72 82 l 1
440 3072 m 1
 1076 3072 l 1
 1076 0 l 1
 440 0 l 1
 440 3072 l 1
1690 1016 m 1
 1628 1290 1493 1487 1178 1487 c 2
 912 1487 l 1
 912 1569 l 1
 1178 1569 l 2
 1493 1569 1628 1745 1690 2019 c 1
 1772 2019 l 1
 1772 1016 l 1
 1690 1016 l 1
EndSplineSet
EndChar

StartChar: G
Encoding: 71 71 18
GlifName: G_
Width: 3102
Flags: HMW
LayerCount: 2
Fore
SplineSet
2755 2170 m 1
 2672 2417 2456 2689 2304 2867 c 1
 2693 3072 l 1
 2755 3072 l 1
 2755 2170 l 1
1751 1208 m 1
 3062 1208 l 1
 3062 1126 l 1
 1751 1126 l 1
 1751 1208 l 1
2181 1147 m 1
 2857 1147 l 1
 2857 635 l 1
 2591 357 2296 -41 1628 -41 c 0
 714 -41 174 582 174 1536 c 0
 174 2490 859 3113 1690 3113 c 0
 2214 3113 2755 2674 2755 2170 c 1
 2673 2170 l 1
 2571 2588 2218 3000 1751 3000 c 0
 1141 3000 890 2281 890 1536 c 0
 890 791 1038 62 1628 62 c 0
 1972 62 2119 340 2181 512 c 1
 2181 1147 l 1
EndSplineSet
EndChar

StartChar: H
Encoding: 72 72 19
GlifName: H_
Width: 3245
Flags: HMW
LayerCount: 2
Fore
SplineSet
994 1556 m 1
 2263 1556 l 1
 2263 1475 l 1
 994 1475 l 1
 994 1556 l 1
1812 82 m 1
 3184 82 l 1
 3184 0 l 1
 1812 0 l 1
 1812 82 l 1
72 82 m 1
 1444 82 l 1
 1444 0 l 1
 72 0 l 1
 72 82 l 1
1812 3072 m 1
 3184 3072 l 1
 3184 2990 l 1
 1812 2990 l 1
 1812 3072 l 1
72 3072 m 1
 1444 3072 l 1
 1444 2990 l 1
 72 2990 l 1
 72 3072 l 1
2181 3072 m 1
 2816 3072 l 1
 2816 0 l 1
 2181 0 l 1
 2181 3072 l 1
440 3072 m 1
 1076 3072 l 1
 1076 0 l 1
 440 0 l 1
 440 3072 l 1
EndSplineSet
EndChar

StartChar: I
Encoding: 73 73 20
GlifName: I_
Width: 1709
Flags: HMW
LayerCount: 2
Fore
SplineSet
72 82 m 1
 1648 82 l 1
 1648 0 l 1
 72 0 l 1
 72 82 l 1
72 3072 m 1
 1648 3072 l 1
 1648 2990 l 1
 72 2990 l 1
 72 3072 l 1
522 3072 m 1
 1158 3072 l 1
 1158 0 l 1
 522 0 l 1
 522 3072 l 1
EndSplineSet
EndChar

StartChar: J
Encoding: 74 74 21
GlifName: J_
Width: 2184
Flags: HMW
LayerCount: 2
Fore
SplineSet
546 3072 m 1
 2124 3072 l 1
 2124 2990 l 1
 546 2990 l 1
 546 3072 l 1
1080 3072 m 1
 1714 3072 l 1
 1714 696 l 1
 1550 306 1330 -123 732 -123 c 0
 314 -123 51 122 51 430 c 0
 51 664 223 819 428 819 c 0
 612 819 780 685 780 455 c 0
 780 250 622 92 424 92 c 0
 398 92 364 94 330 104 c 1
 408 32 543 -37 711 -37 c 0
 1002 -37 1080 205 1080 778 c 2
 1080 3072 l 1
EndSplineSet
Substitution2: "'ss02' Style Set 2 lookup 4-1" J.alt
EndChar

StartChar: K
Encoding: 75 75 22
GlifName: K_
Width: 3143
Flags: HMW
LayerCount: 2
Fore
SplineSet
72 82 m 1
 1444 82 l 1
 1444 0 l 1
 72 0 l 1
 72 82 l 1
72 3072 m 1
 1484 3072 l 1
 1484 2990 l 1
 72 2990 l 1
 72 3072 l 1
440 3072 m 1
 1076 3072 l 1
 1076 0 l 1
 440 0 l 1
 440 3072 l 1
716 889 m 1
 592 889 l 1
 2452 3064 l 1
 2576 3064 l 1
 716 889 l 1
1648 82 m 1
 3124 82 l 1
 3124 0 l 1
 1648 0 l 1
 1648 82 l 1
2938 2990 m 1
 1956 2990 l 1
 1956 3072 l 1
 2938 3072 l 1
 2938 2990 l 1
2804 0 m 1
 2066 0 l 1
 1194 1536 l 1
 1620 1998 l 1
 2804 0 l 1
EndSplineSet
EndChar

StartChar: L
Encoding: 76 76 23
GlifName: L_
Width: 2518
Flags: HMW
LayerCount: 2
Fore
SplineSet
440 3072 m 1
 1076 3072 l 1
 1076 0 l 1
 440 0 l 1
 440 3072 l 1
72 3072 m 1
 1444 3072 l 1
 1444 2990 l 1
 72 2990 l 1
 72 3072 l 1
2437 0 m 1
 72 0 l 1
 72 82 l 1
 1496 82 l 2
 2098 82 2294 402 2356 922 c 1
 2437 922 l 1
 2437 0 l 1
EndSplineSet
EndChar

StartChar: M
Encoding: 77 77 24
GlifName: M_
Width: 3614
Flags: HMW
LayerCount: 2
Fore
SplineSet
3554 3072 m 1
 3554 2990 l 1
 3266 2990 l 1
 3266 0 l 1
 2632 0 l 1
 2632 3072 l 1
 3554 3072 l 1
92 82 m 1
 756 82 l 1
 756 0 l 1
 92 0 l 1
 92 82 l 1
2304 82 m 1
 3554 82 l 1
 3554 0 l 1
 2304 0 l 1
 2304 82 l 1
1840 878 m 1
 2582 3072 l 1
 2672 3072 l 1
 1620 -41 l 1
 1530 -41 l 1
 391 3072 l 1
 1030 3072 l 1
 1840 878 l 1
379 2990 m 1
 72 2990 l 1
 72 3072 l 1
 469 3072 l 1
 469 0 l 1
 379 0 l 1
 379 2990 l 1
EndSplineSet
EndChar

StartChar: N
Encoding: 78 78 25
GlifName: N_
Width: 3102
Flags: HMW
LayerCount: 2
Fore
SplineSet
2521 3072 m 1
 2612 3072 l 1
 2612 -41 l 1
 2468 -41 l 1
 482 3072 l 1
 1240 3072 l 1
 2521 1052 l 1
 2521 3072 l 1
2070 3072 m 1
 3042 3072 l 1
 3042 2990 l 1
 2070 2990 l 1
 2070 3072 l 1
72 82 m 1
 1063 82 l 1
 1063 0 l 1
 72 0 l 1
 72 82 l 1
502 2990 m 1
 72 2990 l 1
 72 3072 l 1
 592 3072 l 1
 592 0 l 1
 502 0 l 1
 502 2990 l 1
EndSplineSet
EndChar

StartChar: O
Encoding: 79 79 26
GlifName: O_
Width: 3122
Flags: HMW
LayerCount: 2
Fore
SplineSet
1566 -41 m 0
 694 -41 174 644 174 1536 c 0
 174 2428 734 3113 1566 3113 c 0
 2398 3113 2960 2428 2960 1536 c 0
 2960 644 2438 -41 1566 -41 c 0
1566 3043 m 0
 1038 3043 890 2384 890 1536 c 0
 890 688 996 29 1566 29 c 0
 2136 29 2242 688 2242 1536 c 0
 2242 2384 2094 3043 1566 3043 c 0
EndSplineSet
EndChar

StartChar: P
Encoding: 80 80 27
GlifName: P_
Width: 2754
Flags: HMW
LayerCount: 2
Fore
SplineSet
440 3072 m 1
 1076 3072 l 1
 1076 0 l 1
 440 0 l 1
 440 3072 l 1
72 82 m 1
 1444 82 l 1
 1444 0 l 1
 72 0 l 1
 72 82 l 1
1484 1352 m 2
 891 1352 l 1
 891 1434 l 1
 1403 1434 l 2
 1755 1434 1915 1847 1915 2212 c 0
 1915 2577 1755 2990 1403 2990 c 2
 72 2990 l 1
 72 3072 l 1
 1484 3072 l 2
 2266 3072 2611 2744 2611 2212 c 0
 2611 1680 2266 1352 1484 1352 c 2
EndSplineSet
EndChar

StartChar: Q
Encoding: 81 81 28
GlifName: Q_
Width: 3122
Flags: HMW
LayerCount: 2
Fore
SplineSet
1566 -41 m 0
 694 -41 174 644 174 1536 c 0
 174 2428 734 3113 1566 3113 c 0
 2398 3113 2960 2428 2960 1536 c 0
 2960 644 2438 -41 1566 -41 c 0
1566 3043 m 0
 1038 3043 890 2384 890 1536 c 0
 890 688 996 29 1566 29 c 0
 2136 29 2242 688 2242 1536 c 0
 2242 2384 2094 3043 1566 3043 c 0
2386 -942 m 1
 2386 -1024 l 1
 1370 -1024 1198 -791 1198 20 c 1
 1427 -5 1650 -14 1914 20 c 1
 1914 -725 1960 -942 2386 -942 c 1
EndSplineSet
EndChar

StartChar: R
Encoding: 82 82 29
GlifName: R_
Width: 3040
Flags: HMW
LayerCount: 2
Fore
SplineSet
1506 1565 m 2
 809 1565 l 1
 809 1618 l 1
 1403 1618 l 2
 1796 1618 1997 1827 1997 2314 c 0
 1997 2801 1796 2990 1403 2990 c 2
 72 2990 l 1
 72 3072 l 1
 1506 3072 l 2
 2186 3072 2652 2846 2652 2314 c 0
 2652 1782 2226 1565 1506 1565 c 2
72 82 m 1
 1526 82 l 1
 1526 0 l 1
 72 0 l 1
 72 82 l 1
481 3072 m 1
 1116 3072 l 1
 1116 0 l 1
 481 0 l 1
 481 3072 l 1
3000 51 m 1
 2934 14 2737 -30 2508 -30 c 0
 1390 -30 2411 1536 1403 1536 c 2
 809 1536 l 1
 809 1577 l 1
 1730 1577 l 2
 3074 1577 2271 88 2775 88 c 0
 2861 88 2919 104 2976 129 c 1
 3000 51 l 1
EndSplineSet
Substitution2: "'ss01' Style Set 1 lookup 2-1" R.alt
EndChar

StartChar: S
Encoding: 83 83 30
GlifName: S_
Width: 2446
Flags: HMW
LayerCount: 2
Fore
SplineSet
2120 2191 m 1
 2038 2191 l 1
 1874 2678 1572 3012 1166 3012 c 0
 834 3012 645 2843 645 2560 c 0
 645 1864 2284 2048 2284 880 c 0
 2284 307 1838 -61 1260 -61 c 0
 621 -61 334 430 174 922 c 1
 256 922 l 1
 400 516 690 35 1218 35 c 0
 1611 35 1854 250 1854 594 c 0
 1854 1372 215 1106 215 2294 c 0
 215 2806 648 3113 1124 3113 c 0
 1628 3113 1956 2769 2120 2191 c 1
2058 3113 m 1
 2120 3113 l 1
 2120 2191 l 1
 1999 2423 1888 2626 1730 2867 c 1
 2058 3113 l 1
236 -41 m 1
 174 -41 l 1
 174 922 l 1
 303 678 425 436 572 221 c 1
 236 -41 l 1
EndSplineSet
EndChar

StartChar: T
Encoding: 84 84 31
GlifName: T_
Width: 2774
Flags: HMW
LayerCount: 2
Fore
SplineSet
624 82 m 1
 2161 82 l 1
 2161 0 l 1
 624 0 l 1
 624 82 l 1
1075 3031 m 1
 1710 3031 l 1
 1710 0 l 1
 1075 0 l 1
 1075 3031 l 1
1976 2990 m 2
 809 2990 l 2
 371 2990 216 2609 154 2089 c 1
 72 2089 l 1
 72 3072 l 1
 2714 3072 l 1
 2714 2089 l 1
 2632 2089 l 1
 2570 2609 2414 2990 1976 2990 c 2
EndSplineSet
EndChar

StartChar: U
Encoding: 85 85 32
GlifName: U_
Width: 2959
Flags: HMW
LayerCount: 2
Fore
SplineSet
2100 3072 m 1
 2898 3072 l 1
 2898 2990 l 1
 2100 2990 l 1
 2100 3072 l 1
72 3072 m 1
 1484 3072 l 1
 1484 2990 l 1
 72 2990 l 1
 72 3072 l 1
2448 3072 m 1
 2530 3072 l 1
 2530 942 l 2
 2530 266 2214 -61 1546 -61 c 0
 776 -61 440 233 440 942 c 2
 440 3072 l 1
 1076 3072 l 1
 1076 983 l 2
 1076 442 1182 62 1710 62 c 0
 2116 62 2448 319 2448 942 c 2
 2448 3072 l 1
EndSplineSet
EndChar

StartChar: V
Encoding: 86 86 33
GlifName: V_
Width: 3163
Flags: HMW
LayerCount: 2
Fore
SplineSet
3124 2990 m 1
 2222 2990 l 1
 2222 3072 l 1
 3124 3072 l 1
 3124 2990 l 1
1526 2990 m 1
 51 2990 l 1
 51 3072 l 1
 1526 3072 l 1
 1526 2990 l 1
1866 631 m 1
 2718 3072 l 1
 2820 3072 l 1
 1710 -61 l 1
 1424 -61 l 1
 338 3072 l 1
 1076 3072 l 1
 1866 631 l 1
EndSplineSet
EndChar

StartChar: W
Encoding: 87 87 34
GlifName: W_
Width: 4515
Flags: HMW
LayerCount: 2
Fore
SplineSet
2484 1946 m 1
 1772 -41 l 1
 1506 -41 l 1
 375 3072 l 1
 1096 3072 l 1
 1940 708 l 1
 2414 2032 l 1
 2484 1946 l 1
2724 1907 m 1
 2654 1991 l 1
 3058 3072 l 1
 3156 3072 l 1
 2724 1907 l 1
4475 2990 m 1
 3656 2990 l 1
 3656 3072 l 1
 4475 3072 l 1
 4475 2990 l 1
2347 3072 m 1
 3191 708 l 1
 4045 3072 l 1
 4143 3072 l 1
 3025 -41 l 1
 2820 -41 l 1
 1688 3072 l 1
 2347 3072 l 1
3472 2990 m 1
 51 2990 l 1
 51 3072 l 1
 3472 3072 l 1
 3472 2990 l 1
EndSplineSet
EndChar

StartChar: X
Encoding: 88 88 35
GlifName: X_
Width: 3245
Flags: HMW
LayerCount: 2
Fore
SplineSet
1686 1544 m 1
 1562 1544 l 1
 2534 3064 l 1
 2636 3064 l 1
 1686 1544 l 1
518 0 m 1
 404 0 l 1
 1538 1708 l 1
 1648 1708 l 1
 518 0 l 1
1812 82 m 1
 3206 82 l 1
 3206 0 l 1
 1812 0 l 1
 1812 82 l 1
51 82 m 1
 1034 82 l 1
 1034 0 l 1
 51 0 l 1
 51 82 l 1
1588 2990 m 1
 194 2990 l 1
 194 3072 l 1
 1588 3072 l 1
 1588 2990 l 1
2980 2990 m 1
 2078 2990 l 1
 2078 3072 l 1
 2980 3072 l 1
 2980 2990 l 1
2942 0 m 1
 2206 0 l 1
 440 3072 l 1
 1162 3072 l 1
 2942 0 l 1
EndSplineSet
EndChar

StartChar: Y
Encoding: 89 89 36
GlifName: Y_
Width: 3020
Flags: HMW
LayerCount: 2
Fore
SplineSet
2980 2990 m 1
 2120 2990 l 1
 2120 3072 l 1
 2980 3072 l 1
 2980 2990 l 1
1484 2990 m 1
 51 2990 l 1
 51 3072 l 1
 1484 3072 l 1
 1484 2990 l 1
870 82 m 1
 2284 82 l 1
 2284 0 l 1
 870 0 l 1
 870 82 l 1
1835 1688 m 1
 2616 3064 l 1
 2718 3064 l 1
 1874 1569 l 1
 1874 0 l 1
 1239 0 l 1
 1239 1475 l 1
 297 3072 l 1
 1034 3072 l 1
 1835 1688 l 1
EndSplineSet
EndChar

StartChar: Z
Encoding: 90 90 37
GlifName: Z_
Width: 2528
Flags: HMW
LayerCount: 2
Fore
SplineSet
133 3072 m 1
 2344 3072 l 1
 2344 2990 l 1
 768 82 l 1
 1526 82 l 2
 2087 82 2222 320 2304 840 c 1
 2386 840 l 1
 2386 0 l 1
 51 0 l 1
 51 82 l 1
 1628 2990 l 1
 994 2990 l 2
 433 2990 297 2752 215 2314 c 1
 133 2314 l 1
 133 3072 l 1
EndSplineSet
EndChar

StartChar: a
Encoding: 97 97 38
GlifName: a
Width: 2399
VWidth: 4730
Flags: HMW
LayerCount: 2
Fore
SplineSet
2380 258 m 1
 2286 53 2073 -41 1835 -41 c 0
 1581 -41 1356 58 1356 320 c 2
 1356 1249 l 2
 1356 1564 1277 1823 969 1823 c 0
 830 1823 739 1790 684 1751 c 1
 799 1741 966 1678 966 1486 c 0
 966 1302 787 1192 623 1192 c 0
 439 1192 308 1310 308 1478 c 0
 308 1742 664 1917 1078 1917 c 0
 1754 1917 1929 1622 1929 1249 c 2
 1929 262 l 2
 1929 180 1982 118 2080 118 c 0
 2154 118 2240 152 2318 291 c 1
 2380 258 l 1
1060 1069 m 2
 1568 1069 l 1
 1568 987 l 1
 1204 987 l 2
 954 987 786 788 786 534 c 0
 786 342 852 188 1016 188 c 0
 1168 188 1356 327 1356 741 c 1
 1418 741 l 1
 1418 233 1171 -41 716 -41 c 0
 392 -41 164 160 164 463 c 0
 164 807 478 1069 1060 1069 c 2
EndSplineSet
EndChar

StartChar: b
Encoding: 98 98 39
GlifName: b
Width: 2592
VWidth: 4730
Flags: HMW
LayerCount: 2
Fore
SplineSet
880 942 m 0
 880 1565 1126 1921 1581 1921 c 0
 2027 1921 2450 1556 2450 942 c 0
 2450 328 2027 -41 1581 -41 c 0
 1126 -41 880 319 880 942 c 0
942 942 m 0
 942 393 1198 92 1428 92 c 0
 1670 92 1794 352 1794 942 c 0
 1794 1532 1670 1788 1428 1788 c 0
 1198 1788 942 1491 942 942 c 0
368 2990 m 1
 82 2990 l 1
 82 3072 l 1
 942 3072 l 1
 942 0 l 1
 82 0 l 1
 82 82 l 1
 368 82 l 1
 368 2990 l 1
EndSplineSet
EndChar

StartChar: c
Encoding: 99 99 40
GlifName: c
Width: 2135
VWidth: 4730
Flags: HMW
LayerCount: 2
Fore
SplineSet
1674 1659 m 1
 1623 1733 1456 1833 1256 1833 c 0
 871 1833 819 1327 819 942 c 0
 819 475 920 78 1284 78 c 0
 1570 78 1766 287 1868 586 c 1
 1958 586 l 1
 1852 230 1615 -41 1160 -41 c 0
 562 -41 144 287 144 942 c 0
 144 1515 504 1925 1184 1925 c 0
 1622 1925 1956 1682 1956 1366 c 0
 1956 1157 1814 1040 1630 1040 c 0
 1466 1040 1294 1126 1294 1362 c 0
 1294 1566 1450 1669 1590 1669 c 0
 1639 1669 1666 1661 1674 1659 c 1
EndSplineSet
EndChar

StartChar: d
Encoding: 100 100 41
GlifName: d
Width: 2592
VWidth: 4730
Flags: HMW
LayerCount: 2
Fore
SplineSet
1712 942 m 0
 1712 319 1467 -41 1012 -41 c 0
 566 -41 144 328 144 942 c 0
 144 1556 566 1921 1012 1921 c 0
 1467 1921 1712 1565 1712 942 c 0
1650 942 m 0
 1650 1532 1377 1788 1166 1788 c 0
 924 1788 799 1552 799 942 c 0
 799 332 944 112 1186 112 c 0
 1397 112 1650 352 1650 942 c 0
2511 82 m 1
 2511 0 l 1
 1650 0 l 1
 1650 2990 l 1
 1364 2990 l 1
 1364 3072 l 1
 2224 3072 l 1
 2224 82 l 1
 2511 82 l 1
EndSplineSet
EndChar

StartChar: e
Encoding: 101 101 42
GlifName: e
Width: 2172
VWidth: 4730
Flags: HMW
LayerCount: 2
Fore
SplineSet
418 1028 m 1
 418 1110 l 1
 1428 1110 l 1
 1424 1430 1398 1843 1136 1843 c 0
 853 1843 778 1450 778 983 c 0
 778 455 875 62 1260 62 c 0
 1600 62 1856 287 1958 586 c 1
 2040 586 l 1
 1934 230 1645 -41 1149 -41 c 0
 571 -41 144 308 144 942 c 0
 144 1576 558 1925 1136 1925 c 0
 1746 1925 2036 1474 2036 1028 c 1
 418 1028 l 1
EndSplineSet
EndChar

StartChar: f
Encoding: 102 102 43
GlifName: f
Width: 1617
VWidth: 4730
Flags: HMW
LayerCount: 2
Fore
SplineSet
62 82 m 1
 1474 82 l 1
 1474 0 l 1
 62 0 l 1
 62 82 l 1
62 1884 m 1
 1556 1884 l 1
 1556 1802 l 1
 62 1802 l 1
 62 1884 l 1
1774 2910 m 1
 1725 2955 1624 3031 1442 3031 c 0
 1114 3031 983 2732 983 2212 c 2
 983 0 l 1
 430 0 l 1
 430 2097 l 2
 430 2675 827 3113 1421 3113 c 0
 1773 3113 1986 2880 1986 2646 c 0
 1986 2437 1856 2310 1672 2310 c 0
 1508 2310 1339 2409 1339 2614 c 0
 1339 2812 1484 2930 1658 2930 c 0
 1715 2930 1772 2910 1774 2910 c 1
EndSplineSet
EndChar

StartChar: g
Encoding: 103 103 44
GlifName: g
Width: 2567
VWidth: 4730
Flags: HMW
LayerCount: 2
Fore
SplineSet
213 303 m 0
 213 647 725 725 1114 725 c 1
 1106 688 l 1
 930 688 574 625 574 475 c 0
 574 354 766 344 991 344 c 0
 1134 344 1229 348 1344 348 c 0
 1651 348 2028 221 2028 -336 c 0
 2028 -832 1618 -1065 1065 -1065 c 0
 581 -1065 82 -921 82 -532 c 0
 82 -159 512 -70 696 -70 c 2
 737 -70 l 1
 594 -148 574 -328 574 -418 c 0
 574 -738 758 -967 1110 -967 c 0
 1454 -967 1770 -856 1770 -500 c 0
 1770 -279 1618 -140 1352 -140 c 0
 1246 -140 1016 -140 926 -140 c 0
 557 -140 213 -13 213 303 c 0
778 1290 m 0
 778 946 798 737 1020 737 c 0
 1180 737 1262 946 1262 1290 c 0
 1262 1634 1180 1843 1020 1843 c 0
 860 1843 778 1634 778 1290 c 0
184 1290 m 0
 184 1741 626 1925 1020 1925 c 0
 1414 1925 1856 1741 1856 1290 c 0
 1856 839 1414 655 1020 655 c 0
 626 655 184 839 184 1290 c 0
2330 1741 m 1
 2289 1807 2202 1823 2112 1823 c 0
 1934 1823 1720 1728 1638 1372 c 1
 1569 1421 l 1
 1651 1794 1907 1905 2112 1905 c 0
 2382 1905 2506 1718 2506 1562 c 0
 2506 1337 2369 1266 2247 1266 c 0
 2125 1266 1991 1346 1991 1522 c 0
 1991 1658 2082 1765 2228 1765 c 0
 2284 1765 2314 1749 2330 1741 c 1
EndSplineSet
EndChar

StartChar: h
Encoding: 104 104 45
GlifName: h
Width: 2559
VWidth: 4730
Flags: HMW
LayerCount: 2
Fore
SplineSet
1618 1262 m 2
 1618 1606 1550 1728 1378 1728 c 0
 1114 1728 942 1335 942 913 c 1
 880 913 l 1
 880 1331 1004 1925 1610 1925 c 0
 2068 1925 2192 1663 2192 1307 c 2
 2192 0 l 1
 1618 0 l 1
 1618 1262 l 2
1393 82 m 1
 2478 82 l 1
 2478 0 l 1
 1393 0 l 1
 1393 82 l 1
82 82 m 1
 1167 82 l 1
 1167 0 l 1
 82 0 l 1
 82 82 l 1
368 2990 m 1
 82 2990 l 1
 82 3072 l 1
 942 3072 l 1
 942 0 l 1
 368 0 l 1
 368 2990 l 1
EndSplineSet
EndChar

StartChar: i
Encoding: 105 105 46
GlifName: i
Width: 1322
VWidth: 4730
Flags: HMW
LayerCount: 2
Fore
SplineSet
102 82 m 1
 1250 82 l 1
 1250 0 l 1
 102 0 l 1
 102 82 l 1
286 2764 m 0
 286 2960 439 3113 635 3113 c 0
 831 3113 983 2960 983 2764 c 0
 983 2568 831 2416 635 2416 c 0
 439 2416 286 2568 286 2764 c 0
390 1802 m 1
 102 1802 l 1
 102 1884 l 1
 962 1884 l 1
 962 0 l 1
 390 0 l 1
 390 1802 l 1
EndSplineSet
EndChar

StartChar: j
Encoding: 106 106 47
GlifName: j
Width: 1339
VWidth: 4730
Flags: HMW
LayerCount: 2
Fore
SplineSet
356 2764 m 0
 356 2960 508 3113 704 3113 c 0
 900 3113 1052 2960 1052 2764 c 0
 1052 2568 900 2416 704 2416 c 0
 508 2416 356 2568 356 2764 c 0
1024 1884 m 1
 1024 -49 l 2
 1024 -586 709 -1065 136 -1065 c 0
 -237 -1065 -492 -858 -492 -588 c 0
 -492 -381 -334 -242 -156 -242 c 0
 8 -242 176 -340 176 -545 c 0
 176 -739 27 -856 -184 -856 c 0
 -198 -856 -217 -854 -217 -854 c 1
 -195 -888 -86 -973 94 -973 c 0
 524 -973 450 -438 450 82 c 2
 450 1802 l 1
 82 1802 l 1
 82 1884 l 1
 1024 1884 l 1
EndSplineSet
EndChar

StartChar: k
Encoding: 107 107 48
GlifName: k
Width: 2625
VWidth: 4730
Flags: HMW
LayerCount: 2
Fore
SplineSet
2429 0 m 1
 1720 0 l 1
 910 1090 l 1
 2024 1884 l 1
 2158 1884 l 1
 1418 1330 l 1
 2429 0 l 1
1430 82 m 1
 2584 82 l 1
 2584 0 l 1
 1430 0 l 1
 1430 82 l 1
2384 1802 m 1
 1470 1802 l 1
 1470 1884 l 1
 2384 1884 l 1
 2384 1802 l 1
82 82 m 1
 1249 82 l 1
 1249 0 l 1
 82 0 l 1
 82 82 l 1
450 2990 m 1
 82 2990 l 1
 82 3072 l 1
 1024 3072 l 1
 1024 0 l 1
 450 0 l 1
 450 2990 l 1
EndSplineSet
EndChar

StartChar: l
Encoding: 108 108 49
GlifName: l
Width: 1474
VWidth: 4730
Flags: HMW
LayerCount: 2
Fore
SplineSet
82 82 m 1
 1392 82 l 1
 1392 0 l 1
 82 0 l 1
 82 82 l 1
450 2990 m 1
 82 2990 l 1
 82 3072 l 1
 1024 3072 l 1
 1024 0 l 1
 450 0 l 1
 450 2990 l 1
EndSplineSet
EndChar

StartChar: m
Encoding: 109 109 50
GlifName: m
Width: 3645
VWidth: 4730
Flags: HMW
LayerCount: 2
Fore
SplineSet
2110 1307 m 2
 2110 0 l 1
 1536 0 l 1
 1536 1262 l 2
 1536 1606 1504 1751 1348 1751 c 0
 1100 1751 942 1335 942 913 c 1
 880 913 l 1
 880 1331 982 1925 1568 1925 c 0
 1965 1925 2110 1663 2110 1307 c 2
82 82 m 1
 1157 82 l 1
 1157 0 l 1
 82 0 l 1
 82 82 l 1
1321 82 m 1
 2324 82 l 1
 2324 0 l 1
 1321 0 l 1
 1321 82 l 1
2488 82 m 1
 3564 82 l 1
 3564 0 l 1
 2488 0 l 1
 2488 82 l 1
368 1802 m 1
 82 1802 l 1
 82 1884 l 1
 942 1884 l 1
 942 0 l 1
 368 0 l 1
 368 1802 l 1
3276 1307 m 2
 3276 0 l 1
 2704 0 l 1
 2704 1262 l 2
 2704 1606 2652 1751 2494 1751 c 0
 2236 1751 2110 1335 2110 913 c 1
 2046 913 l 1
 2046 1331 2098 1925 2716 1925 c 0
 3113 1925 3276 1663 3276 1307 c 2
EndSplineSet
EndChar

StartChar: n
Encoding: 110 110 51
GlifName: n
Width: 2559
VWidth: 4730
Flags: HMW
LayerCount: 2
Fore
SplineSet
1618 1262 m 2
 1618 1606 1550 1728 1378 1728 c 0
 1138 1728 942 1335 942 913 c 1
 880 913 l 1
 880 1331 1024 1925 1610 1925 c 0
 2048 1925 2192 1663 2192 1307 c 2
 2192 0 l 1
 1618 0 l 1
 1618 1262 l 2
1393 82 m 1
 2478 82 l 1
 2478 0 l 1
 1393 0 l 1
 1393 82 l 1
82 82 m 1
 1167 82 l 1
 1167 0 l 1
 82 0 l 1
 82 82 l 1
368 1802 m 1
 82 1802 l 1
 82 1884 l 1
 942 1884 l 1
 942 0 l 1
 368 0 l 1
 368 1802 l 1
EndSplineSet
EndChar

StartChar: o
Encoding: 111 111 52
GlifName: o
Width: 2285
VWidth: 4730
Flags: HMW
LayerCount: 2
Fore
SplineSet
758 942 m 0
 758 454 840 41 1143 41 c 0
 1446 41 1528 454 1528 942 c 0
 1528 1430 1446 1843 1143 1843 c 0
 840 1843 758 1430 758 942 c 0
144 942 m 0
 144 1474 525 1925 1143 1925 c 0
 1761 1925 2142 1474 2142 942 c 0
 2142 410 1761 -41 1143 -41 c 0
 525 -41 144 410 144 942 c 0
EndSplineSet
EndChar

StartChar: p
Encoding: 112 112 53
GlifName: p
Width: 2592
VWidth: 4730
Flags: HMW
LayerCount: 2
Fore
SplineSet
880 942 m 0
 880 1565 1126 1921 1581 1921 c 0
 2027 1921 2450 1556 2450 942 c 0
 2450 328 2027 -41 1581 -41 c 0
 1126 -41 880 319 880 942 c 0
942 942 m 0
 942 352 1226 92 1418 92 c 0
 1680 92 1794 393 1794 942 c 0
 1794 1491 1690 1788 1428 1788 c 0
 1219 1788 942 1532 942 942 c 0
82 -942 m 1
 1228 -942 l 1
 1228 -1024 l 1
 82 -1024 l 1
 82 -942 l 1
368 1802 m 1
 82 1802 l 1
 82 1884 l 1
 942 1884 l 1
 942 -1024 l 1
 368 -1024 l 1
 368 1802 l 1
EndSplineSet
EndChar

StartChar: q
Encoding: 113 113 54
GlifName: q
Width: 2592
VWidth: 4730
Flags: HMW
LayerCount: 2
Fore
SplineSet
1712 942 m 0
 1712 319 1467 -41 1012 -41 c 0
 566 -41 144 328 144 942 c 0
 144 1556 566 1921 1012 1921 c 0
 1467 1921 1712 1565 1712 942 c 0
1650 942 m 0
 1650 1532 1375 1788 1166 1788 c 0
 924 1788 799 1491 799 942 c 0
 799 393 924 112 1166 112 c 0
 1416 112 1650 352 1650 942 c 0
2511 -942 m 1
 2511 -1024 l 1
 1364 -1024 l 1
 1364 -942 l 1
 2511 -942 l 1
2511 1884 m 1
 2511 1802 l 1
 2224 1802 l 1
 2224 -1024 l 1
 1650 -1024 l 1
 1650 1884 l 1
 2511 1884 l 1
EndSplineSet
EndChar

StartChar: r
Encoding: 114 114 55
GlifName: r
Width: 1971
VWidth: 4730
Flags: HMW
LayerCount: 2
Fore
SplineSet
1630 1800 m 1
 1583 1829 1515 1837 1454 1837 c 0
 1065 1837 942 1314 942 913 c 1
 880 913 l 1
 880 1413 978 1925 1474 1925 c 0
 1703 1925 1934 1753 1934 1491 c 0
 1934 1301 1812 1138 1594 1138 c 0
 1398 1138 1249 1263 1249 1466 c 0
 1249 1667 1422 1800 1630 1800 c 1
82 82 m 1
 1228 82 l 1
 1228 0 l 1
 82 0 l 1
 82 82 l 1
368 1802 m 1
 82 1802 l 1
 82 1884 l 1
 942 1884 l 1
 942 0 l 1
 368 0 l 1
 368 1802 l 1
EndSplineSet
EndChar

StartChar: s
Encoding: 115 115 56
GlifName: s
Width: 1843
VWidth: 4730
Flags: HMW
LayerCount: 2
Fore
SplineSet
1497 1481 m 1
 1428 1564 1358 1642 1290 1724 c 1
 1524 1925 l 1
 1586 1925 l 1
 1586 1352 l 1
 1504 1352 l 1
 1509 1394 1505 1437 1497 1481 c 1
1564 1352 m 1
 1504 1352 l 1
 1402 1569 1184 1831 852 1831 c 0
 716 1831 492 1764 492 1561 c 0
 492 1213 1720 1372 1720 602 c 0
 1720 176 1355 -41 979 -41 c 0
 573 -41 286 214 184 594 c 1
 246 594 l 1
 390 274 647 49 938 49 c 0
 1164 49 1401 125 1401 334 c 0
 1401 731 213 528 213 1331 c 0
 213 1655 459 1921 848 1921 c 0
 1249 1921 1482 1622 1564 1352 c 1
226 -41 m 1
 164 -41 l 1
 164 594 l 1
 246 594 l 1
 243 550 241 504 246 458 c 1
 308 347 386 267 459 180 c 1
 226 -41 l 1
EndSplineSet
EndChar

StartChar: t
Encoding: 116 116 57
GlifName: t
Width: 1494
VWidth: 4730
Flags: HMW
LayerCount: 2
Fore
SplineSet
40 1884 m 1
 1352 1884 l 1
 1352 1802 l 1
 40 1802 l 1
 40 1884 l 1
1474 418 m 1
 1376 156 1147 -29 815 -29 c 0
 417 -29 340 190 340 476 c 2
 340 2294 l 1
 524 2294 770 2335 914 2417 c 1
 914 420 l 2
 914 215 958 142 1069 142 c 0
 1184 142 1327 266 1401 446 c 1
 1474 418 l 1
EndSplineSet
EndChar

StartChar: u
Encoding: 117 117 58
GlifName: u
Width: 2559
VWidth: 4730
Flags: HMW
LayerCount: 2
Fore
SplineSet
942 1884 m 1
 942 623 l 2
 942 279 1010 156 1182 156 c 0
 1422 156 1618 549 1618 971 c 1
 1680 971 l 1
 1680 553 1536 -41 950 -41 c 0
 512 -41 368 222 368 578 c 2
 368 1802 l 1
 82 1802 l 1
 82 1884 l 1
 942 1884 l 1
2192 82 m 1
 2478 82 l 1
 2478 0 l 1
 1618 0 l 1
 1618 1802 l 1
 1352 1802 l 1
 1352 1884 l 1
 2192 1884 l 1
 2192 82 l 1
EndSplineSet
EndChar

StartChar: v
Encoding: 118 118 59
GlifName: v
Width: 2350
VWidth: 4730
Flags: HMW
LayerCount: 2
Fore
SplineSet
2351 1802 m 1
 1556 1802 l 1
 1556 1884 l 1
 2351 1884 l 1
 2351 1802 l 1
1233 1802 m 1
 0 1802 l 1
 0 1884 l 1
 1233 1884 l 1
 1233 1802 l 1
1406 492 m 1
 1958 1884 l 1
 2068 1884 l 1
 1298 -41 l 1
 1056 -41 l 1
 266 1884 l 1
 901 1884 l 1
 1406 492 l 1
EndSplineSet
EndChar

StartChar: w
Encoding: 119 119 60
GlifName: w
Width: 3378
VWidth: 4730
Flags: HMW
LayerCount: 2
Fore
SplineSet
1254 1802 m 1
 0 1802 l 1
 0 1884 l 1
 1254 1884 l 1
 1254 1802 l 1
3379 1802 m 1
 2502 1802 l 1
 2502 1884 l 1
 3379 1884 l 1
 3379 1802 l 1
1260 528 m 1
 1802 1925 l 1
 2130 1925 l 1
 2529 610 l 1
 2953 1884 l 1
 3056 1884 l 1
 2412 -41 l 1
 2167 -41 l 1
 1684 1352 l 1
 1139 -41 l 1
 892 -41 l 1
 266 1884 l 1
 876 1884 l 1
 1260 528 l 1
EndSplineSet
EndChar

StartChar: x
Encoding: 120 120 61
GlifName: x
Width: 2371
VWidth: 4730
Flags: HMW
LayerCount: 2
Fore
SplineSet
1160 82 m 1
 2331 82 l 1
 2331 0 l 1
 1160 0 l 1
 1160 82 l 1
40 82 m 1
 836 82 l 1
 836 0 l 1
 40 0 l 1
 40 82 l 1
1254 1802 m 1
 61 1802 l 1
 61 1884 l 1
 1254 1884 l 1
 1254 1802 l 1
2280 1802 m 1
 1526 1802 l 1
 1526 1884 l 1
 2280 1884 l 1
 2280 1802 l 1
2146 0 m 1
 1470 0 l 1
 287 1884 l 1
 942 1884 l 1
 2146 0 l 1
360 0 m 1
 246 0 l 1
 1919 1884 l 1
 2034 1884 l 1
 360 0 l 1
EndSplineSet
EndChar

StartChar: y
Encoding: 121 121 62
GlifName: y
Width: 2449
VWidth: 4730
Flags: HMW
LayerCount: 2
Fore
SplineSet
1356 1802 m 1
 -20 1802 l 1
 -20 1884 l 1
 1356 1884 l 1
 1356 1802 l 1
2490 1802 m 1
 1712 1802 l 1
 1712 1884 l 1
 2490 1884 l 1
 2490 1802 l 1
1593 544 m 1
 1249 -90 l 1
 242 1884 l 1
 918 1884 l 1
 1593 544 l 1
938 -660 m 1
 2158 1884 l 1
 2270 1884 l 1
 993 -770 l 2
 905 -950 798 -1054 622 -1054 c 0
 458 -1054 295 -947 295 -750 c 0
 295 -574 430 -426 622 -426 c 0
 790 -426 908 -549 938 -660 c 1
EndSplineSet
EndChar

StartChar: z
Encoding: 122 122 63
GlifName: z
Width: 1965
VWidth: 4730
Flags: HMW
LayerCount: 2
Fore
SplineSet
844 1802 m 2
 459 1802 320 1594 258 1180 c 1
 176 1180 l 1
 176 1884 l 1
 1818 1884 l 1
 1818 1802 l 1
 708 82 l 1
 1122 82 l 2
 1601 82 1740 246 1802 754 c 1
 1884 754 l 1
 1884 0 l 1
 62 0 l 1
 62 82 l 1
 1168 1802 l 1
 844 1802 l 2
EndSplineSet
EndChar

StartChar: comma
Encoding: 44 44 65
GlifName: comma
Width: 1126
Flags: HMW
LayerCount: 2
Fore
SplineSet
164 324 m 0
 164 520 343 688 561 688 c 0
 783 688 971 499 971 139 c 0
 971 -271 648 -639 156 -639 c 1
 156 -557 l 1
 533 -557 855 -332 884 172 c 1
 794 20 636 -41 504 -41 c 0
 308 -41 164 128 164 324 c 0
EndSplineSet
EndChar

StartChar: exclam
Encoding: 33 33 67
GlifName: exclam
Width: 1556
Flags: HMW
LayerCount: 2
Fore
SplineSet
1138 2617 m 0
 1093 2019 815 1569 815 1057 c 1
 733 1057 l 1
 733 1569 455 2019 410 2617 c 0
 408 2646 410 2670 410 2695 c 0
 410 2924 520 3105 774 3105 c 0
 1028 3105 1143 2924 1143 2695 c 0
 1143 2670 1140 2646 1138 2617 c 0
EndSplineSet
Refer: 1 46 N 1 0 0 1 246 0 2
EndChar

StartChar: quotesingle
Encoding: 39 39 70
GlifName: quotesingle
Width: 1064
Flags: HMW
LayerCount: 2
Fore
SplineSet
856 2708 m 24
 811 2401 574 2307 574 1856 c 1
 492 1856 l 1
 492 2307 254 2401 209 2708 c 24
 205 2737 205 2756 205 2781 c 0
 205 2982 352 3113 532 3113 c 0
 712 3113 860 2982 860 2781 c 0
 860 2756 860 2737 856 2708 c 24
EndSplineSet
EndChar

StartChar: question
Encoding: 63 63 75
GlifName: question
Width: 2395
Flags: HMW
LayerCount: 2
Fore
SplineSet
992 1470 m 1
 1368 1597 1532 1913 1532 2294 c 0
 1532 2679 1455 3006 1049 3006 c 0
 746 3006 480 2782 418 2626 c 1
 434 2630 486 2662 572 2662 c 0
 752 2662 918 2549 918 2355 c 0
 918 2140 766 2024 582 2024 c 0
 377 2024 246 2161 246 2380 c 0
 246 2736 631 3113 1172 3113 c 0
 1790 3113 2192 2786 2192 2294 c 0
 2192 1823 1754 1454 1074 1417 c 1
 1074 1000 l 1
 992 1000 l 1
 992 1470 l 1
EndSplineSet
Refer: 1 46 N 1 0 0 1 569 0 2
EndChar

StartChar: parenleft
Encoding: 40 40 76
GlifName: parenleft
Width: 1523
Flags: HMW
LayerCount: 2
Fore
SplineSet
1483 -627 m 1
 1446 -696 l 1
 778 -409 266 377 266 1331 c 0
 266 2285 778 2990 1446 3277 c 1
 1483 3207 l 1
 1077 2941 901 2117 901 1331 c 0
 901 545 1077 -361 1483 -627 c 1
EndSplineSet
EndChar

StartChar: at
Encoding: 64 64 79
GlifName: at
Width: 4136
VWidth: 4730
Flags: HMW
LayerCount: 2
Fore
SplineSet
2426 1458 m 0
 2426 794 2105 287 1634 287 c 0
 1269 287 1000 516 1000 942 c 0
 1000 1556 1449 2167 1997 2167 c 0
 2349 2167 2426 1794 2426 1458 c 0
2362 1417 m 0
 2362 1589 2332 1978 2152 1978 c 0
 1933 1978 1659 1491 1659 983 c 0
 1659 709 1721 479 1901 479 c 0
 2089 479 2362 893 2362 1417 c 0
2274 860 m 2
 2568 2130 l 1
 3182 2130 l 1
 2888 860 l 2
 2860 733 2740 406 2974 406 c 0
 3416 406 3830 1011 3830 1642 c 0
 3830 2367 3391 3154 2392 3154 c 0
 1249 3154 307 2101 307 864 c 0
 307 -353 1003 -795 1716 -795 c 0
 2388 -795 2785 -602 3154 -201 c 1
 3215 -262 l 1
 2871 -663 2384 -877 1716 -877 c 0
 966 -877 225 -418 225 864 c 0
 225 2146 1196 3236 2396 3236 c 0
 3432 3236 3912 2392 3912 1642 c 0
 3912 966 3530 279 2768 279 c 0
 2280 279 2217 606 2274 860 c 2
EndSplineSet
EndChar

StartChar: dollar
Encoding: 36 36 80
GlifName: dollar
Width: 2436
Flags: HMW
LayerCount: 2
Fore
SplineSet
1270 3400 m 1
 1372 3400 l 1
 1372 -328 l 1
 1270 -328 l 1
 1270 3400 l 1
942 3400 m 1
 1044 3400 l 1
 1044 -328 l 1
 942 -328 l 1
 942 3400 l 1
1954 2689 m 1
 1868 2843 1601 3019 1237 3019 c 0
 885 3019 655 2843 655 2560 c 0
 655 1864 2273 2069 2273 901 c 0
 2273 328 1867 -61 1228 -61 c 0
 486 -61 112 328 112 635 c 0
 112 864 250 1032 471 1032 c 0
 635 1032 795 901 795 680 c 0
 795 475 598 372 438 372 c 0
 372 372 311 390 286 402 c 1
 434 246 660 29 1188 29 c 0
 1622 29 1844 250 1844 594 c 0
 1844 1372 226 1085 226 2273 c 0
 226 2785 720 3113 1216 3113 c 0
 1678 3113 2150 2851 2150 2478 c 0
 2150 2249 2023 2101 1802 2101 c 0
 1638 2101 1479 2208 1479 2423 c 0
 1479 2621 1634 2740 1794 2740 c 0
 1839 2740 1907 2721 1954 2689 c 1
EndSplineSet
EndChar

StartChar: numbersign
Encoding: 35 35 81
GlifName: numbersign
Width: 2580
Flags: HMW
LayerCount: 2
Fore
SplineSet
123 1085 m 1
 2335 1085 l 1
 2335 1004 l 1
 123 1004 l 1
 123 1085 l 1
246 2130 m 1
 2458 2130 l 1
 2458 2048 l 1
 246 2048 l 1
 246 2130 l 1
1843 3088 m 1
 1925 3092 l 1
 1516 -20 l 1
 1434 -25 l 1
 1843 3088 l 1
1024 3092 m 1
 1106 3092 l 1
 696 -20 l 1
 614 -20 l 1
 1024 3092 l 1
EndSplineSet
EndChar

StartChar: slash
Encoding: 47 47 82
GlifName: slash
Width: 2129
Flags: HMW
LayerCount: 2
Fore
SplineSet
1884 3195 m 1
 1966 3195 l 1
 246 -614 l 1
 164 -614 l 1
 1884 3195 l 1
EndSplineSet
EndChar

StartChar: percent
Encoding: 37 37 83
GlifName: percent
Width: 4177
Flags: HMW
LayerCount: 2
Fore
SplineSet
2868 860 m 0
 2868 340 2933 41 3133 41 c 0
 3333 41 3400 340 3400 860 c 0
 3400 1380 3333 1679 3133 1679 c 0
 2933 1679 2868 1380 2868 860 c 0
2232 860 m 0
 2232 1446 2670 1761 3133 1761 c 0
 3596 1761 4034 1446 4034 860 c 0
 4034 274 3514 -41 3133 -41 c 0
 2670 -41 2232 274 2232 860 c 0
3072 3072 m 1
 3174 3072 l 1
 1106 0 l 1
 1004 0 l 1
 3072 3072 l 1
778 2212 m 0
 778 1692 844 1393 1044 1393 c 0
 1244 1393 1310 1692 1310 2212 c 0
 1310 2732 1244 3031 1044 3031 c 0
 844 3031 778 2732 778 2212 c 0
143 2212 m 0
 143 2798 581 3113 1044 3113 c 0
 1507 3113 1946 2798 1946 2212 c 0
 1946 1626 1425 1311 1044 1311 c 0
 581 1311 143 1626 143 2212 c 0
EndSplineSet
EndChar

StartChar: hyphen
Encoding: 45 45 85
GlifName: hyphen
Width: 1474
Flags: HMW
LayerCount: 2
Fore
SplineSet
246 1167 m 1
 1229 1167 l 1
 1229 1085 l 1
 246 1085 l 1
 246 1167 l 1
EndSplineSet
EndChar

StartChar: plus
Encoding: 43 43 87
GlifName: plus
Width: 2170
Flags: HMW
LayerCount: 2
Fore
SplineSet
1044 451 m 1
 1044 2130 l 1
 1126 2130 l 1
 1126 451 l 1
 1044 451 l 1
246 1335 m 1
 1925 1335 l 1
 1925 1253 l 1
 246 1253 l 1
 246 1335 l 1
EndSplineSet
EndChar

StartChar: less
Encoding: 60 60 89
GlifName: less
Width: 2293
Flags: HMW
LayerCount: 2
Fore
SplineSet
246 1556 m 1
 246 1638 l 1
 2048 2458 l 1
 2048 2376 l 1
 246 1556 l 1
246 1536 m 1
 246 1618 l 1
 2048 799 l 1
 2048 717 l 1
 246 1536 l 1
EndSplineSet
EndChar

StartChar: backslash
Encoding: 92 92 91
GlifName: backslash
Width: 2129
Flags: HMW
LayerCount: 2
Fore
SplineSet
266 3195 m 1
 1966 -614 l 1
 1864 -614 l 1
 164 3195 l 1
 266 3195 l 1
EndSplineSet
EndChar

StartChar: bracketleft
Encoding: 91 91 92
GlifName: bracketleft
Width: 1453
Flags: HMW
LayerCount: 2
Fore
SplineSet
1331 -614 m 1
 225 -614 l 1
 225 -532 l 1
 1331 -532 l 1
 1331 -614 l 1
1331 3113 m 1
 225 3113 l 1
 225 3195 l 1
 1331 3195 l 1
 1331 3113 l 1
840 3195 m 1
 840 -614 l 1
 225 -614 l 1
 225 3195 l 1
 840 3195 l 1
EndSplineSet
EndChar

StartChar: braceleft
Encoding: 123 123 93
GlifName: braceleft
Width: 1359
VWidth: 4730
Flags: HMW
LayerCount: 2
Fore
SplineSet
1237 3195 m 1
 1237 3113 l 1
 983 3113 852 2908 852 2650 c 0
 852 2380 991 2195 991 1826 c 0
 991 1486 774 1352 225 1270 c 1
 225 1331 l 1
 348 1372 471 1454 471 1622 c 0
 471 1880 225 2065 225 2585 c 0
 225 2991 459 3195 1237 3195 c 1
1237 -614 m 1
 459 -614 225 -406 225 0 c 0
 225 520 471 705 471 963 c 0
 471 1131 348 1208 225 1249 c 1
 225 1311 l 1
 774 1229 991 1098 991 758 c 0
 991 389 852 204 852 -66 c 0
 852 -324 983 -532 1237 -532 c 1
 1237 -614 l 1
EndSplineSet
EndChar

StartChar: bar
Encoding: 124 124 96
GlifName: bar
Width: 942
VWidth: 4730
Flags: HMW
LayerCount: 2
Fore
SplineSet
430 3195 m 1
 512 3195 l 1
 512 -1024 l 1
 430 -1024 l 1
 430 3195 l 1
EndSplineSet
EndChar

StartChar: cent
Encoding: 162 162 98
GlifName: cent
Width: 2135
VWidth: 4730
Flags: HMW
LayerCount: 2
Fore
SplineSet
1233 2273 m 1
 1233 -348 l 1
 1151 -348 l 1
 1151 2273 l 1
 1233 2273 l 1
EndSplineSet
Refer: 40 99 N 1 0 0 1 0 0 2
EndChar

StartChar: sterling
Encoding: 163 163 99
GlifName: sterling
Width: 2686
VWidth: 4730
Flags: HMW
LayerCount: 2
Fore
SplineSet
2589 889 m 1
 2589 90 2297 -123 1830 -123 c 0
 1269 -123 1024 123 766 123 c 0
 598 123 418 41 377 -82 c 1
 332 -82 l 1
 394 221 712 643 1114 643 c 0
 1483 643 1647 504 1917 504 c 0
 2175 504 2507 553 2507 889 c 1
 2589 889 l 1
1905 1659 m 1
 1905 1577 l 1
 61 1577 l 1
 61 1659 l 1
 1905 1659 l 1
401 2253 m 0
 401 2826 853 3113 1573 3113 c 0
 2237 3113 2589 2726 2589 2390 c 0
 2589 2160 2436 2003 2242 2003 c 0
 2058 2003 1868 2130 1868 2356 c 0
 1868 2560 2044 2704 2224 2704 c 0
 2294 2704 2340 2680 2356 2676 c 1
 2294 2787 2060 3008 1696 3008 c 0
 1270 3008 1102 2740 1102 2396 c 0
 1102 1990 1331 1802 1331 1454 c 0
 1331 696 324 696 377 -82 c 1
 295 -82 l 1
 217 487 733 807 733 1069 c 0
 733 1536 401 1782 401 2253 c 0
EndSplineSet
EndChar

StartChar: section
Encoding: 167 167 101
GlifName: section
Width: 1951
VWidth: 4730
Flags: HMW
LayerCount: 2
Fore
SplineSet
553 2668 m 0
 553 2214 1792 2214 1792 1587 c 0
 1792 1292 1562 1188 1362 1062 c 1
 1292 1075 l 1
 1349 1145 1440 1210 1440 1354 c 0
 1440 1809 274 1704 274 2449 c 0
 274 2875 633 3113 1022 3113 c 0
 1362 3113 1776 2976 1776 2542 c 0
 1776 2354 1652 2206 1468 2206 c 0
 1304 2206 1186 2328 1186 2496 c 0
 1186 2648 1320 2777 1480 2777 c 0
 1542 2777 1598 2748 1614 2744 c 1
 1510 2916 1296 3027 1022 3027 c 0
 786 3027 553 2885 553 2668 c 0
1788 664 m 0
 1788 238 1450 -41 938 -41 c 0
 578 -41 123 103 123 537 c 0
 123 725 246 872 430 872 c 0
 594 872 713 750 713 582 c 0
 713 430 584 310 424 310 c 0
 362 310 307 338 291 342 c 1
 405 144 664 45 938 45 c 0
 1319 45 1479 238 1479 414 c 0
 1479 868 197 828 197 1434 c 0
 197 1750 438 1922 598 2028 c 1
 676 2028 l 1
 660 1979 570 1892 570 1728 c 0
 570 1273 1788 1409 1788 664 c 0
EndSplineSet
EndChar

StartChar: asciitilde
Encoding: 126 126 104
GlifName: asciitilde
Width: 2818
VWidth: 4730
Flags: HMW
LayerCount: 2
Fore
SplineSet
852 1728 m 0
 635 1728 492 1639 492 1405 c 1
 410 1405 l 1
 410 1876 655 2150 1020 2150 c 0
 1471 2150 1533 1766 1926 1766 c 0
 2184 1766 2327 1855 2327 2089 c 1
 2408 2089 l 1
 2408 1618 2163 1344 1798 1344 c 0
 1278 1344 1274 1728 852 1728 c 0
EndSplineSet
EndChar

StartChar: copyright
Encoding: 169 169 105
GlifName: copyright
Width: 3563
Flags: HMW
LayerCount: 2
Fore
SplineSet
205 1536 m 0
 205 2408 910 3113 1782 3113 c 0
 2654 3113 3359 2408 3359 1536 c 0
 3359 664 2654 -41 1782 -41 c 0
 910 -41 205 664 205 1536 c 0
287 1536 m 0
 287 713 959 41 1782 41 c 0
 2605 41 3277 713 3277 1536 c 0
 3277 2359 2605 3031 1782 3031 c 0
 959 3031 287 2359 287 1536 c 0
EndSplineSet
Refer: 14 67 N 0.6 0 0 0.6 827 614 2
EndChar

StartChar: registered
Encoding: 174 174 106
GlifName: registered
Width: 3563
Flags: HMW
LayerCount: 2
Fore
SplineSet
205 1536 m 0
 205 2408 910 3113 1782 3113 c 0
 2654 3113 3359 2408 3359 1536 c 0
 3359 664 2654 -41 1782 -41 c 0
 910 -41 205 664 205 1536 c 0
287 1536 m 0
 287 713 959 41 1782 41 c 0
 2605 41 3277 713 3277 1536 c 0
 3277 2359 2605 3031 1782 3031 c 0
 959 3031 287 2359 287 1536 c 0
EndSplineSet
Refer: 29 82 S 0.6 0 0 0.6 914 606 2
EndChar

StartChar: logicalnot
Encoding: 172 172 107
GlifName: logicalnot
Width: 1990
Flags: HMW
LayerCount: 2
Fore
SplineSet
1663 2437 m 1
 246 2437 l 1
 246 2519 l 1
 1745 2519 l 1
 1745 1692 l 1
 1663 1692 l 1
 1663 2437 l 1
EndSplineSet
EndChar

StartChar: guillemotleft
Encoding: 171 171 108
GlifName: guillemotleft
Width: 2969
Flags: HMW
LayerCount: 2
Fore
SplineSet
2011 1589 m 1
 2765 635 l 1
 2724 594 l 1
 1249 1536 l 1
 1249 1638 l 1
 2724 2580 l 1
 2765 2540 l 1
 2011 1589 l 1
823 1589 m 1
 1618 635 l 1
 1577 594 l 1
 102 1536 l 1
 102 1638 l 1
 1577 2580 l 1
 1618 2540 l 1
 823 1589 l 1
EndSplineSet
EndChar

StartChar: mu
Encoding: 181 181 111
GlifName: mu
Width: 2559
VWidth: 4730
Flags: HMW
LayerCount: 2
Fore
SplineSet
1069 -504 m 0
 1204 -504 1311 -622 1311 -778 c 0
 1311 -938 1225 -1065 926 -1065 c 0
 639 -1065 393 -865 393 -496 c 2
 393 1315 l 1
 475 1315 l 1
 475 -496 l 2
 475 -832 668 -974 938 -999 c 1
 938 -999 l 1
 827 -905 827 -795 827 -721 c 0
 827 -586 934 -504 1069 -504 c 0
EndSplineSet
Refer: 58 117 N 1 0 0 1 0 0 2
EndChar

StartChar: asciicircum
Encoding: 94 94 113
GlifName: asciicircum
Width: 2232
Flags: HMW
LayerCount: 2
Fore
SplineSet
1114 2961 m 1
 451 2540 l 1
 410 2580 l 1
 983 3154 l 1
 1249 3154 l 1
 1823 2580 l 1
 1782 2540 l 1
 1114 2961 l 1
EndSplineSet
EndChar

StartChar: degree
Encoding: 176 176 115
GlifName: degree
Width: 1310
Flags: HMW
LayerCount: 2
Fore
SplineSet
164 2785 m 0
 164 3055 385 3277 655 3277 c 0
 925 3277 1147 3055 1147 2785 c 0
 1147 2515 925 2294 655 2294 c 0
 385 2294 164 2515 164 2785 c 0
389 2785 m 0
 389 2633 503 2519 655 2519 c 0
 807 2519 922 2633 922 2785 c 0
 922 2937 807 3052 655 3052 c 0
 503 3052 389 2937 389 2785 c 0
EndSplineSet
EndChar

StartChar: onequarter
Encoding: 188 188 119
GlifName: onequarter
Width: 2748
Flags: HMW
LayerCount: 2
Fore
SplineSet
2073 2662 m 1
 2154 2662 l 1
 246 -410 l 1
 164 -410 l 1
 2073 2662 l 1
EndSplineSet
Refer: 6 52 N 0.6 0 0 0.6 1106 -422 2
Refer: 3 49 N 0.6 0 0 0.6 -33 1458 2
EndChar

StartChar: onehalf
Encoding: 189 189 120
GlifName: onehalf
Width: 2867
Flags: HMW
LayerCount: 2
Fore
SplineSet
2073 2662 m 1
 2154 2662 l 1
 246 -410 l 1
 164 -410 l 1
 2073 2662 l 1
EndSplineSet
Refer: 4 50 N 0.6 0 0 0.6 1397 -414 2
Refer: 3 49 N 0.6 0 0 0.6 -33 1458 2
EndChar

StartChar: threequarters
Encoding: 190 190 121
GlifName: threequarters
Width: 2994
Flags: HMW
LayerCount: 2
Fore
SplineSet
2318 2662 m 1
 2400 2662 l 1
 492 -410 l 1
 410 -410 l 1
 2318 2662 l 1
EndSplineSet
Refer: 5 51 N 0.6 0 0 0.6 20 1450 2
Refer: 6 52 N 0.6 0 0 0.6 1352 -422 2
EndChar

StartChar: grave
Encoding: 96 96 123
GlifName: grave
Width: 1678
Flags: HMW
LayerCount: 2
Fore
SplineSet
492 2867 m 2
 352 2851 225 2952 225 3092 c 0
 225 3232 372 3368 532 3310 c 2
 1450 3010 l 1
 1434 2928 l 1
 492 2867 l 2
EndSplineSet
EndChar

StartChar: acute
Encoding: 180 180 124
GlifName: acute
Width: 1678
Flags: HMW
LayerCount: 2
Fore
SplineSet
1188 2867 m 2
 246 2928 l 1
 229 3010 l 1
 1146 3310 l 2
 1306 3368 1454 3232 1454 3092 c 0
 1454 2952 1328 2851 1188 2867 c 2
EndSplineSet
EndChar

StartChar: cedilla
Encoding: 184 184 128
GlifName: cedilla
Width: 2252
Flags: HMW
LayerCount: 2
Fore
SplineSet
1266 -573 m 0
 1266 -356 1093 -324 889 -324 c 1
 1257 168 l 1
 1372 168 l 1
 1126 -160 l 1
 1482 -172 1720 -263 1720 -492 c 0
 1720 -697 1523 -901 905 -901 c 1
 905 -819 l 1
 1147 -819 1266 -712 1266 -573 c 0
EndSplineSet
EndChar

StartChar: divide
Encoding: 247 247 131
GlifName: divide
Width: 2498
Flags: HMW
LayerCount: 2
Fore
SplineSet
184 1659 m 1
 2314 1659 l 1
 2314 1577 l 1
 184 1577 l 1
 184 1659 l 1
880 799 m 0
 880 1001 1047 1168 1249 1168 c 0
 1451 1168 1618 1001 1618 799 c 0
 1618 597 1451 430 1249 430 c 0
 1047 430 880 597 880 799 c 0
880 2376 m 0
 880 2578 1047 2744 1249 2744 c 0
 1451 2744 1618 2578 1618 2376 c 0
 1618 2174 1451 2007 1249 2007 c 0
 1047 2007 880 2174 880 2376 c 0
EndSplineSet
EndChar

StartChar: ring
Encoding: 730 730 271
GlifName: ring
Width: 1310
VWidth: 0
Flags: HMW
LayerCount: 2
Fore
SplineSet
246 2785 m 0
 246 2994 405 3154 655 3154 c 0
 905 3154 1065 2994 1065 2785 c 0
 1065 2576 905 2417 655 2417 c 0
 405 2417 246 2576 246 2785 c 0
492 2785 m 0
 492 2593 544 2499 655 2499 c 0
 766 2499 820 2593 820 2785 c 0
 820 2977 766 3072 655 3072 c 0
 544 3072 492 2977 492 2785 c 0
EndSplineSet
EndChar

StartChar: tilde
Encoding: 732 732 272
GlifName: tilde
Width: 1835
VWidth: 0
Flags: HMW
LayerCount: 2
Fore
SplineSet
504 2678 m 0
 390 2678 287 2590 287 2438 c 1
 205 2438 l 1
 205 2786 348 3040 610 3040 c 0
 938 3040 1081 2716 1331 2716 c 0
 1445 2716 1548 2806 1548 2958 c 1
 1630 2958 l 1
 1630 2569 1570 2356 1266 2356 c 0
 951 2356 782 2678 504 2678 c 0
EndSplineSet
EndChar

StartChar: AE
Encoding: 198 198 274
GlifName: A_E_
Width: 4280
Flags: HMW
LayerCount: 2
Fore
SplineSet
2150 3072 m 1
 2245 3072 l 1
 463 0 l 1
 348 0 l 1
 2150 3072 l 1
61 82 m 1
 963 82 l 1
 963 0 l 1
 61 0 l 1
 61 82 l 1
1004 1044 m 1
 2191 1044 l 1
 2191 963 l 1
 1004 963 l 1
 1004 1044 l 1
2150 3072 m 1
 2786 3072 l 1
 2786 0 l 1
 2150 0 l 1
 2150 3072 l 1
2150 3072 m 1
 4116 3072 l 1
 4116 2232 l 1
 4034 2232 l 1
 3972 2670 3735 2990 3277 2990 c 2
 2150 2990 l 1
 2150 3072 l 1
4158 0 m 1
 1782 0 l 1
 1782 82 l 1
 3236 82 l 2
 3776 82 4014 402 4076 922 c 1
 4158 922 l 1
 4158 0 l 1
3400 1078 m 1
 3338 1352 3161 1548 2928 1548 c 2
 2683 1548 l 1
 2683 1630 l 1
 2928 1630 l 2
 3161 1630 3338 1806 3400 2080 c 1
 3482 2080 l 1
 3482 1078 l 1
 3400 1078 l 1
EndSplineSet
EndChar

StartChar: ae
Encoding: 230 230 277
GlifName: ae
Width: 3411
VWidth: 4730
Flags: HMW
LayerCount: 2
Fore
SplineSet
287 1478 m 0
 287 1742 643 1917 1057 1917 c 0
 1589 1917 1806 1622 1806 1249 c 1
 1786 741 l 1
 1786 233 1377 -41 901 -41 c 0
 455 -41 143 119 143 463 c 0
 143 807 458 1069 1040 1069 c 2
 1671 1069 l 1
 1671 987 l 1
 1184 987 l 2
 934 987 766 789 766 494 c 0
 766 220 862 51 1026 51 c 0
 1198 51 1335 266 1335 639 c 2
 1335 1249 l 2
 1335 1523 1276 1823 948 1823 c 0
 809 1823 719 1790 664 1751 c 1
 779 1741 946 1678 946 1486 c 0
 946 1302 766 1192 602 1192 c 0
 418 1192 287 1310 287 1478 c 0
2698 1110 m 1
 2694 1430 2668 1843 2406 1843 c 0
 2123 1843 2048 1450 2048 983 c 0
 2048 516 2123 62 2529 62 c 0
 2869 62 3126 287 3228 586 c 1
 3310 586 l 1
 3204 230 2914 -41 2418 -41 c 0
 1902 -41 1536 308 1536 942 c 0
 1536 1576 1890 1925 2406 1925 c 0
 3016 1925 3306 1474 3306 1028 c 1
 1790 1028 l 1
 1790 1110 l 1
 2698 1110 l 1
EndSplineSet
EndChar

StartChar: perthousand
Encoding: 8240 8240 285
GlifName: perthousand
Width: 6184
Flags: HMW
LayerCount: 2
Fore
SplineSet
4874 860 m 0
 4874 340 4940 41 5140 41 c 0
 5340 41 5406 340 5406 860 c 0
 5406 1380 5340 1679 5140 1679 c 0
 4940 1679 4874 1380 4874 860 c 0
4239 860 m 0
 4239 1446 4677 1761 5140 1761 c 0
 5603 1761 6042 1446 6042 860 c 0
 6042 274 5521 -41 5140 -41 c 0
 4677 -41 4239 274 4239 860 c 0
2868 860 m 0
 2868 340 2933 41 3133 41 c 0
 3333 41 3400 340 3400 860 c 0
 3400 1380 3333 1679 3133 1679 c 0
 2933 1679 2868 1380 2868 860 c 0
2232 860 m 0
 2232 1446 2670 1761 3133 1761 c 0
 3596 1761 4034 1446 4034 860 c 0
 4034 274 3514 -41 3133 -41 c 0
 2670 -41 2232 274 2232 860 c 0
3072 3072 m 1
 3174 3072 l 1
 1106 0 l 1
 1004 0 l 1
 3072 3072 l 1
778 2212 m 0
 778 1692 844 1393 1044 1393 c 0
 1244 1393 1310 1692 1310 2212 c 0
 1310 2732 1244 3031 1044 3031 c 0
 844 3031 778 2732 778 2212 c 0
143 2212 m 0
 143 2798 581 3113 1044 3113 c 0
 1507 3113 1946 2798 1946 2212 c 0
 1946 1626 1425 1311 1044 1311 c 0
 581 1311 143 1626 143 2212 c 0
EndSplineSet
EndChar

StartChar: uni2031
Encoding: 8241 8241 286
GlifName: uni2031
Width: 8212
Flags: HMW
LayerCount: 2
Fore
SplineSet
6902 860 m 0
 6902 340 6968 41 7168 41 c 0
 7368 41 7434 340 7434 860 c 0
 7434 1380 7368 1679 7168 1679 c 0
 6968 1679 6902 1380 6902 860 c 0
6266 860 m 0
 6266 1446 6705 1761 7168 1761 c 0
 7631 1761 8069 1446 8069 860 c 0
 8069 274 7549 -41 7168 -41 c 0
 6705 -41 6266 274 6266 860 c 0
4874 860 m 0
 4874 340 4940 41 5140 41 c 0
 5340 41 5406 340 5406 860 c 0
 5406 1380 5340 1679 5140 1679 c 0
 4940 1679 4874 1380 4874 860 c 0
4239 860 m 0
 4239 1446 4677 1761 5140 1761 c 0
 5603 1761 6042 1446 6042 860 c 0
 6042 274 5521 -41 5140 -41 c 0
 4677 -41 4239 274 4239 860 c 0
2868 860 m 0
 2868 340 2933 41 3133 41 c 0
 3333 41 3400 340 3400 860 c 0
 3400 1380 3333 1679 3133 1679 c 0
 2933 1679 2868 1380 2868 860 c 0
2232 860 m 0
 2232 1446 2670 1761 3133 1761 c 0
 3596 1761 4034 1446 4034 860 c 0
 4034 274 3514 -41 3133 -41 c 0
 2670 -41 2232 274 2232 860 c 0
3072 3072 m 1
 3174 3072 l 1
 1106 0 l 1
 1004 0 l 1
 3072 3072 l 1
778 2212 m 0
 778 1692 844 1393 1044 1393 c 0
 1244 1393 1310 1692 1310 2212 c 0
 1310 2732 1244 3031 1044 3031 c 0
 844 3031 778 2732 778 2212 c 0
143 2212 m 0
 143 2798 581 3113 1044 3113 c 0
 1507 3113 1946 2798 1946 2212 c 0
 1946 1626 1425 1311 1044 1311 c 0
 581 1311 143 1626 143 2212 c 0
EndSplineSet
EndChar

StartChar: uniFB00
Encoding: 64256 64256 290
GlifName: uniF_B_00
Width: 2866
VWidth: 4730
Flags: HMW
LayerCount: 2
Fore
SplineSet
51 82 m 1
 2744 82 l 1
 2744 0 l 1
 51 0 l 1
 51 82 l 1
51 1884 m 1
 2826 1884 l 1
 2826 1802 l 1
 51 1802 l 1
 51 1884 l 1
1839 2687 m 1
 1813 2732 1675 2820 1493 2820 c 0
 1185 2820 973 2527 973 2007 c 2
 973 0 l 1
 420 0 l 1
 420 1892 l 2
 420 2470 858 2908 1472 2908 c 0
 1824 2908 2079 2675 2079 2421 c 0
 2079 2212 1947 2085 1763 2085 c 0
 1599 2085 1432 2183 1432 2388 c 0
 1432 2593 1571 2706 1751 2706 c 0
 1806 2706 1835 2687 1839 2687 c 1
3041 2912 m 1
 2994 2957 2894 3029 2712 3029 c 0
 2384 3029 2253 2732 2253 2212 c 2
 2253 0 l 1
 1700 0 l 1
 1700 2097 l 2
 1700 2675 2097 3113 2691 3113 c 0
 3043 3113 3256 2880 3256 2646 c 0
 3256 2437 3125 2310 2941 2310 c 0
 2777 2310 2609 2409 2609 2614 c 0
 2609 2819 2748 2930 2928 2930 c 0
 2983 2930 3037 2912 3041 2912 c 1
EndSplineSet
Ligature2: "'liga' Standard Ligatures lookup 0-1" f f
LCarets2: 1 0
EndChar

StartChar: uniFB01
Encoding: 64257 64257 291
GlifName: uniF_B_01
Width: 2570
VWidth: 4730
Flags: HMW
LayerCount: 2
Fore
SplineSet
420 2097 m 2
 420 2695 838 3113 1554 3113 c 0
 1988 3113 2222 2880 2222 2626 c 0
 2222 2417 2090 2290 1906 2290 c 0
 1742 2290 1575 2388 1575 2593 c 0
 1575 2798 1714 2906 1894 2906 c 0
 1949 2906 1985 2888 1989 2888 c 1
 1956 2933 1818 3029 1554 3029 c 0
 1124 3029 973 2732 973 2212 c 2
 973 0 l 1
 420 0 l 1
 420 2097 l 2
51 82 m 1
 2498 82 l 1
 2498 0 l 1
 51 0 l 1
 51 82 l 1
1638 1802 m 1
 51 1802 l 1
 51 1884 l 1
 2212 1884 l 1
 2212 0 l 1
 1638 0 l 1
 1638 1802 l 1
EndSplineSet
Ligature2: "'liga' Standard Ligatures lookup 0-1" f i
LCarets2: 1 0
EndChar

StartChar: uniFB02
Encoding: 64258 64258 292
GlifName: uniF_B_02
Width: 2754
VWidth: 4730
Flags: HMW
LayerCount: 2
Fore
SplineSet
51 82 m 1
 2714 82 l 1
 2714 0 l 1
 51 0 l 1
 51 82 l 1
51 1884 m 1
 1536 1884 l 1
 1536 1802 l 1
 51 1802 l 1
 51 1884 l 1
1812 2990 m 1
 2386 3154 l 1
 2386 0 l 1
 1812 0 l 1
 1812 2990 l 1
1784 2890 m 1
 1754 2935 1634 3031 1452 3031 c 0
 1124 3031 973 2732 973 2212 c 2
 973 0 l 1
 420 0 l 1
 420 2097 l 2
 420 2675 838 3113 1432 3113 c 0
 1784 3113 1997 2880 1997 2626 c 0
 1997 2417 1866 2290 1682 2290 c 0
 1518 2290 1350 2388 1350 2593 c 0
 1350 2798 1489 2910 1669 2910 c 0
 1724 2910 1780 2890 1784 2890 c 1
EndSplineSet
Ligature2: "'liga' Standard Ligatures lookup 0-1" f l
LCarets2: 1 0
EndChar

StartChar: uniFB03
Encoding: 64259 64259 293
GlifName: uniF_B_03
Width: 3808
VWidth: 4730
Flags: HMW
LayerCount: 2
Fore
SplineSet
1658 2097 m 2
 1658 2695 2078 3113 2794 3113 c 0
 3228 3113 3461 2880 3461 2626 c 0
 3461 2417 3330 2290 3146 2290 c 0
 2982 2290 2814 2388 2814 2593 c 0
 2814 2798 2954 2906 3134 2906 c 0
 3189 2906 3224 2888 3228 2888 c 1
 3195 2933 3058 3029 2794 3029 c 0
 2364 3029 2212 2732 2212 2212 c 2
 2212 0 l 1
 1658 0 l 1
 1658 2097 l 2
51 82 m 1
 3738 82 l 1
 3738 0 l 1
 51 0 l 1
 51 82 l 1
420 1892 m 2
 420 2468 858 2908 1472 2908 c 0
 1824 2908 2079 2675 2079 2421 c 0
 2079 2212 1947 2085 1763 2085 c 0
 1599 2085 1432 2183 1432 2388 c 0
 1432 2593 1571 2706 1751 2706 c 0
 1806 2706 1835 2687 1839 2687 c 1
 1813 2732 1675 2820 1493 2820 c 0
 1185 2820 973 2527 973 2007 c 2
 973 0 l 1
 420 0 l 1
 420 1892 l 2
2878 1802 m 1
 51 1802 l 1
 51 1884 l 1
 3450 1884 l 1
 3450 0 l 1
 2878 0 l 1
 2878 1802 l 1
EndSplineSet
Ligature2: "'liga' Standard Ligatures lookup 0-1" f f i
LCarets2: 2 0 0
EndChar

StartChar: uniFB04
Encoding: 64260 64260 294
GlifName: uniF_B_04
Width: 4054
VWidth: 4730
Flags: HMW
LayerCount: 2
Fore
SplineSet
51 82 m 1
 3994 82 l 1
 3994 0 l 1
 51 0 l 1
 51 82 l 1
51 1884 m 1
 2816 1884 l 1
 2816 1802 l 1
 51 1802 l 1
 51 1884 l 1
3092 2990 m 1
 3666 3154 l 1
 3666 0 l 1
 3092 0 l 1
 3092 2990 l 1
1839 2687 m 1
 1813 2732 1675 2820 1493 2820 c 0
 1185 2820 973 2527 973 2007 c 2
 973 0 l 1
 420 0 l 1
 420 1892 l 2
 420 2468 858 2908 1472 2908 c 0
 1824 2908 2079 2675 2079 2421 c 0
 2079 2212 1947 2085 1763 2085 c 0
 1599 2085 1432 2183 1432 2388 c 0
 1432 2593 1571 2706 1751 2706 c 0
 1806 2706 1835 2687 1839 2687 c 1
3064 2890 m 1
 3034 2935 2914 3031 2732 3031 c 0
 2404 3031 2253 2732 2253 2212 c 2
 2253 0 l 1
 1700 0 l 1
 1700 2097 l 2
 1700 2675 2118 3113 2712 3113 c 0
 3064 3113 3276 2880 3276 2626 c 0
 3276 2417 3146 2290 2962 2290 c 0
 2798 2290 2630 2388 2630 2593 c 0
 2630 2798 2769 2910 2949 2910 c 0
 3004 2910 3060 2890 3064 2890 c 1
EndSplineSet
Ligature2: "'liga' Standard Ligatures lookup 0-1" f f l
LCarets2: 2 0 0
EndChar

StartChar: ogonek
Encoding: 731 731 295
GlifName: ogonek
Width: 2252
Flags: HMW
LayerCount: 2
Fore
SplineSet
1640 -504 m 1
 1579 -619 1480 -803 1128 -803 c 0
 858 -803 624 -697 624 -451 c 0
 624 -123 1026 84 1338 176 c 1
 1354 131 l 1
 1268 81 1170 -90 1170 -307 c 0
 1170 -520 1228 -656 1346 -656 c 0
 1462 -656 1530 -561 1575 -475 c 1
 1640 -504 l 1
EndSplineSet
EndChar

StartChar: dotlessi
Encoding: 305 305 296
GlifName: dotlessi
Width: 1310
VWidth: 4730
Flags: HMW
LayerCount: 2
Fore
SplineSet
82 82 m 1
 1229 82 l 1
 1229 0 l 1
 82 0 l 1
 82 82 l 1
369 1802 m 1
 82 1802 l 1
 82 1884 l 1
 942 1884 l 1
 942 0 l 1
 369 0 l 1
 369 1802 l 1
EndSplineSet
EndChar

StartChar: uni0237
Encoding: 567 567 297
GlifName: uni0237
Width: 1298
VWidth: 4730
Flags: HMW
LayerCount: 2
Fore
SplineSet
1004 1884 m 1
 1004 -49 l 2
 1004 -586 688 -1065 115 -1065 c 0
 -258 -1065 -512 -862 -512 -588 c 0
 -512 -379 -360 -242 -176 -242 c 0
 -12 -242 156 -340 156 -545 c 0
 156 -750 17 -856 -204 -856 c 0
 -218 -856 -238 -854 -238 -854 c 1
 -216 -888 -106 -973 74 -973 c 0
 504 -973 430 -438 430 82 c 2
 430 1802 l 1
 61 1802 l 1
 61 1884 l 1
 1004 1884 l 1
EndSplineSet
EndChar

StartChar: kgreenlandic
Encoding: 312 312 306
GlifName: kgreenlandic
Width: 2727
VWidth: 4730
Flags: HMW
LayerCount: 2
Fore
SplineSet
2408 0 m 1
 1700 0 l 1
 889 1090 l 1
 2003 1884 l 1
 2138 1884 l 1
 1397 1330 l 1
 2408 0 l 1
1409 82 m 1
 2564 82 l 1
 2564 0 l 1
 1409 0 l 1
 1409 82 l 1
2364 1802 m 1
 1450 1802 l 1
 1450 1884 l 1
 2364 1884 l 1
 2364 1802 l 1
61 82 m 1
 1228 82 l 1
 1228 0 l 1
 61 0 l 1
 61 82 l 1
430 1802 m 1
 61 1802 l 1
 61 1884 l 1
 1004 1884 l 1
 1004 0 l 1
 430 0 l 1
 430 1802 l 1
EndSplineSet
EndChar

StartChar: breve
Encoding: 728 728 307
GlifName: breve
Width: 1228
VWidth: 4730
Flags: HMW
LayerCount: 2
Fore
SplineSet
205 3109 m 1
 205 2919 393 2847 614 2847 c 0
 835 2847 1024 2919 1024 3109 c 1
 1106 3109 l 1
 1106 2715 962 2458 614 2458 c 0
 266 2458 123 2715 123 3109 c 1
 205 3109 l 1
EndSplineSet
EndChar

StartChar: thorn
Encoding: 254 254 318
GlifName: thorn
Width: 2551
VWidth: 4730
Flags: HMW
LayerCount: 2
Fore
SplineSet
860 942 m 0
 860 1565 1105 1921 1560 1921 c 0
 2006 1921 2429 1556 2429 942 c 0
 2429 328 2006 -41 1560 -41 c 0
 1105 -41 860 319 860 942 c 0
922 942 m 0
 922 352 1205 92 1397 92 c 0
 1659 92 1774 393 1774 942 c 0
 1774 1491 1669 1788 1407 1788 c 0
 1198 1788 922 1532 922 942 c 0
61 -942 m 1
 1208 -942 l 1
 1208 -1024 l 1
 61 -1024 l 1
 61 -942 l 1
348 2990 m 1
 61 2990 l 1
 61 3072 l 1
 922 3072 l 1
 922 -1024 l 1
 348 -1024 l 1
 348 2990 l 1
EndSplineSet
EndChar

StartChar: Thorn
Encoding: 222 222 319
GlifName: T_horn
Width: 2744
Flags: HMW
LayerCount: 2
Fore
SplineSet
430 3072 m 1
 1065 3072 l 1
 1065 0 l 1
 430 0 l 1
 430 3072 l 1
61 82 m 1
 1434 82 l 1
 1434 0 l 1
 61 0 l 1
 61 82 l 1
61 3072 m 1
 1434 3072 l 1
 1434 2990 l 1
 61 2990 l 1
 61 3072 l 1
1516 737 m 2
 983 737 l 1
 983 819 l 1
 1372 819 l 2
 1765 819 1904 1232 1904 1597 c 0
 1904 1962 1765 2376 1372 2376 c 2
 983 2376 l 1
 983 2458 l 1
 1516 2458 l 2
 2257 2458 2601 2129 2601 1597 c 0
 2601 1065 2257 737 1516 737 c 2
EndSplineSet
EndChar

StartChar: Dcroat
Encoding: 272 272 320
GlifName: D_croat
Width: 3102
Flags: HMW
LayerCount: 2
Fore
SplineSet
440 3072 m 1
 1076 3072 l 1
 1076 0 l 1
 440 0 l 1
 440 3072 l 1
1382 0 m 2
 72 0 l 1
 72 82 l 1
 1382 82 l 2
 2013 82 2222 730 2222 1536 c 0
 2222 2342 1972 2990 1382 2990 c 2
 72 2990 l 1
 72 3072 l 1
 1382 3072 l 2
 2356 3072 2938 2449 2938 1536 c 0
 2938 623 2316 0 1382 0 c 2
72 1536 m 1
 1494 1536 l 1
 1494 1454 l 1
 72 1454 l 1
 72 1536 l 1
EndSplineSet
EndChar

StartChar: Lslash
Encoding: 321 321 324
GlifName: L_slash
Width: 2518
Flags: HMW
LayerCount: 2
Fore
SplineSet
61 1475 m 1
 1680 2376 l 1
 1680 2273 l 1
 61 1372 l 1
 61 1475 l 1
EndSplineSet
Refer: 23 76 N 1 0 0 1 0 0 2
EndChar

StartChar: lslash
Encoding: 322 322 325
GlifName: lslash
Width: 1474
VWidth: 4730
Flags: HMW
LayerCount: 2
Fore
SplineSet
61 1556 m 1
 1434 2376 l 1
 1434 2269 l 1
 61 1450 l 1
 61 1556 l 1
EndSplineSet
Refer: 49 108 N 1 0 0 1 0 0 2
EndChar

StartChar: eth
Encoding: 240 240 329
GlifName: eth
Width: 2498
VWidth: 4730
Flags: HMW
LayerCount: 2
Fore
SplineSet
532 2580 m 1
 2356 2580 l 1
 2356 2499 l 1
 532 2499 l 1
 532 2580 l 1
2294 1270 m 0
 2294 410 1851 -41 1192 -41 c 0
 533 -41 123 410 123 1024 c 0
 123 1720 627 2018 1082 2018 c 0
 1578 2018 1676 1647 1676 1147 c 1
 1618 1147 l 1
 1618 1679 1450 1888 1212 1888 c 0
 950 1888 798 1676 798 1024 c 0
 798 454 856 41 1180 41 c 0
 1504 41 1618 495 1618 1147 c 1
 1618 1516 l 1
 1618 2221 1164 3043 430 3043 c 1
 430 3113 l 1
 1484 3113 2294 2302 2294 1270 c 0
EndSplineSet
EndChar

StartChar: OE
Encoding: 338 338 330
GlifName: O_E_
Width: 4065
Flags: HMW
LayerCount: 2
Fore
SplineSet
1638 2990 m 1025,0,0
880 1536 m 0,0,0
 880 730 1068 82 1638 82 c 1,0,0
 1556 0 l 1,0,0
 725 0 164 623 164 1536 c 0,0,0
 164 2449 725 3072 1556 3072 c 1,0,0
 1638 2990 l 1,0,0
 1068 2990 880 2342 880 1536 c 0,0,0
EndSplineSet
Refer: 16 69 N 1 0 0 1 1495 0 2
EndChar

StartChar: germandbls
Encoding: 223 223 332
GlifName: germandbls
Width: 3157
VWidth: 4730
Flags: HMW
LayerCount: 2
Fore
SplineSet
1650 1642 m 1
 1650 1700 l 1
 2096 1700 2212 2077 2212 2339 c 0
 2212 2634 2098 3043 1692 3043 c 0
 1184 3043 1044 2552 1044 1970 c 2
 1044 0 l 1
 430 0 l 1
 430 2011 l 2
 430 2761 1044 3113 1712 3113 c 0
 2298 3113 2872 2822 2872 2380 c 0
 2872 1929 2473 1642 1650 1642 c 1
61 82 m 1
 1413 82 l 1
 1413 0 l 1
 61 0 l 1
 61 82 l 1
2994 716 m 0
 2994 224 2528 -41 2032 -41 c 0
 1659 -41 1384 221 1384 639 c 0
 1384 869 1557 987 1741 987 c 0
 1905 987 2064 884 2064 676 c 0
 2064 484 1888 369 1728 369 c 0
 1683 369 1577 377 1528 418 c 1
 1566 226 1778 54 1970 54 c 0
 2274 54 2335 393 2335 655 c 0
 2335 1040 2260 1622 1650 1622 c 1
 1650 1679 l 1
 2637 1679 2994 1248 2994 716 c 0
EndSplineSet
EndChar

StartChar: circumflex
Encoding: 710 710 335
GlifName: circumflex
Width: 1740
Flags: HMW
LayerCount: 2
Fore
SplineSet
868 2868 m 1
 246 2560 l 1
 205 2601 l 1
 696 3154 l 1
 1044 3154 l 1
 1536 2601 l 1
 1495 2560 l 1
 868 2868 l 1
EndSplineSet
EndChar

StartChar: caron
Encoding: 711 711 336
GlifName: caron
Width: 1740
Flags: HMW
LayerCount: 2
Fore
SplineSet
870 2929 m 1
 1495 3236 l 1
 1536 3195 l 1
 1044 2642 l 1
 696 2642 l 1
 205 3195 l 1
 246 3236 l 1
 870 2929 l 1
EndSplineSet
EndChar

StartChar: pi
Encoding: 960 960 337
GlifName: pi
Width: 2584
VWidth: 4730
Flags: HMW
LayerCount: 2
Fore
SplineSet
2441 422 m 1
 2347 135 2174 -41 1896 -41 c 0
 1622 -41 1417 78 1417 340 c 2
 1417 1720 l 1
 1990 1720 l 1
 1990 394 l 2
 1990 312 2044 246 2142 246 c 0
 2216 246 2302 316 2380 455 c 1
 2441 422 l 1
508 -41 m 0
 299 -41 164 74 164 238 c 0
 164 619 807 439 807 1143 c 2
 807 1843 l 1
 1036 1843 l 1
 1036 995 l 2
 1036 348 848 -41 508 -41 c 0
2359 1884 m 1
 2359 1311 l 1
 250 1311 l 1
 250 1004 l 1
 168 1004 l 1
 168 1884 l 1
 2359 1884 l 1
EndSplineSet
EndChar

StartChar: uni1E9E
Encoding: 7838 7838 338
GlifName: uni1E_9E_
Width: 3649
VWidth: 4730
Flags: HMW
LayerCount: 2
Fore
SplineSet
61 82 m 1
 1454 82 l 1
 1454 0 l 1
 61 0 l 1
 61 82 l 1
2490 1581 m 1
 2316 1639 2118 1672 1876 1700 c 1
 2818 2882 l 1
 2668 2958 2444 3021 2162 3021 c 0
 1367 3021 1086 2531 1086 1765 c 2
 1086 0 l 1
 430 0 l 1
 430 1806 l 2
 430 2678 1188 3113 2162 3113 c 0
 2789 3113 3218 2842 3362 2686 c 1
 2490 1581 l 1
1586 406 m 1
 1635 291 1868 60 2236 60 c 0
 2672 60 2816 373 2816 819 c 0
 2816 1183 2670 1622 1876 1622 c 1
 1876 1700 l 1
 3130 1700 3486 1322 3486 830 c 0
 3486 278 2978 -41 2360 -41 c 0
 1716 -41 1413 324 1413 660 c 0
 1413 890 1568 1038 1772 1038 c 0
 1956 1038 2095 906 2095 698 c 0
 2095 506 1929 369 1749 369 c 0
 1663 369 1602 402 1586 406 c 1
EndSplineSet
EndChar

StartChar: uni203D
Encoding: 8253 8253 339
GlifName: uni203D_
Width: 2703
Flags: HMW
LayerCount: 2
Fore
SplineSet
1663 2126 m 0
 1618 1733 1360 1283 1360 996 c 1
 1278 996 l 1
 1278 1283 1102 1733 1057 2126 c 0
 1053 2155 1053 2179 1053 2204 c 0
 1053 2319 1126 2510 1360 2510 c 0
 1594 2510 1667 2319 1667 2204 c 0
 1667 2179 1667 2155 1663 2126 c 0
266 2278 m 0
 266 2655 671 3113 1396 3113 c 0
 2014 3113 2540 2805 2540 2253 c 0
 2540 1721 1917 1372 1380 1372 c 1
 1380 1430 l 1
 1716 1475 2003 1913 2003 2294 c 0
 2003 2679 1748 2986 1302 2986 c 0
 753 2986 504 2679 442 2523 c 1
 458 2527 516 2560 602 2560 c 0
 782 2560 897 2395 897 2252 c 0
 897 2026 725 1921 582 1921 c 0
 418 1921 266 2048 266 2278 c 0
EndSplineSet
Refer: 1 46 N 1 0 0 1 774 0 2
EndChar

StartChar: R.alt
Encoding: 65536 -1 340
GlifName: R_.alt
Width: 2979
Flags: HMW
LayerCount: 2
Fore
SplineSet
1506 1565 m 2
 809 1565 l 1
 809 1618 l 1
 1403 1618 l 2
 1796 1618 1997 1827 1997 2314 c 0
 1997 2801 1796 2990 1403 2990 c 2
 72 2990 l 1
 72 3072 l 1
 1506 3072 l 2
 2186 3072 2652 2846 2652 2314 c 0
 2652 1782 2226 1565 1506 1565 c 2
72 82 m 1
 1526 82 l 1
 1526 0 l 1
 72 0 l 1
 72 82 l 1
481 3072 m 1
 1116 3072 l 1
 1116 0 l 1
 481 0 l 1
 481 3072 l 1
2939 0 m 1
 2873 0 2635 0 2488 0 c 0
 1411 0 2390 1536 1382 1536 c 2
 809 1536 l 1
 809 1577 l 1
 1710 1577 l 2
 3094 1577 2272 82 2796 82 c 0
 2882 82 2882 82 2939 82 c 1
 2939 0 l 1
EndSplineSet
EndChar

StartChar: J.alt
Encoding: 65537 -1 341
GlifName: J_.alt
Width: 2594
Flags: HMW
LayerCount: 2
Fore
SplineSet
977 3072 m 1
 2533 3072 l 1
 2533 2990 l 1
 977 2990 l 1
 977 3072 l 1
1489 3072 m 1
 2124 3072 l 1
 2124 922 l 1
 2001 348 1656 -82 936 -82 c 0
 396 -82 72 307 72 676 c 0
 72 992 284 1168 510 1168 c 0
 714 1168 883 1032 883 792 c 0
 883 588 715 420 496 420 c 0
 371 420 264 481 190 559 c 1
 231 293 481 4 895 4 c 0
 1329 4 1489 328 1489 901 c 2
 1489 3072 l 1
EndSplineSet
EndChar

StartChar: four.alt
Encoding: 65538 -1 342
GlifName: four.alt
Width: 2682
VWidth: 4730
Flags: HMW
LayerCount: 2
Fore
SplineSet
2416 82 m 1
 2416 0 l 1
 1085 0 l 1
 1085 82 l 1
 2416 82 l 1
2110 2040 m 1
 2110 6 l 1
 1475 6 l 1
 1475 1856 l 1
 1659 1856 1987 1958 2110 2040 c 1
213 840 m 1
 2478 840 l 1
 2478 758 l 1
 61 758 l 1
 634 1577 1270 2458 1352 3072 c 1
 2040 3072 l 1
 1962 2376 791 1635 213 840 c 1
EndSplineSet
EndChar

StartChar: fj.lig
Encoding: 65539 -1 343
GlifName: fj.lig
Width: 2502
VWidth: 4730
Flags: HMW
LayerCount: 2
Fore
SplineSet
51 82 m 1
 1352 82 l 1
 1352 0 l 1
 51 0 l 1
 51 82 l 1
2192 -49 m 2
 2192 -586 1875 -1065 1302 -1065 c 0
 929 -1065 676 -862 676 -588 c 0
 676 -379 828 -242 1012 -242 c 0
 1176 -242 1344 -340 1344 -545 c 0
 1344 -750 1204 -856 983 -856 c 0
 971 -856 954 -854 950 -854 c 1
 972 -888 1082 -973 1262 -973 c 0
 1692 -973 1618 -438 1618 82 c 2
 1618 1802 l 1
 51 1802 l 1
 51 1884 l 1
 2192 1884 l 1
 2192 -49 l 2
1968 2888 m 1
 1935 2933 1798 3029 1534 3029 c 0
 1104 3029 973 2732 973 2212 c 2
 973 0 l 1
 420 0 l 1
 420 2097 l 2
 420 2695 818 3113 1534 3113 c 0
 1968 3113 2202 2880 2202 2626 c 0
 2202 2417 2070 2290 1886 2290 c 0
 1722 2290 1554 2388 1554 2593 c 0
 1554 2798 1694 2906 1874 2906 c 0
 1929 2906 1964 2888 1968 2888 c 1
EndSplineSet
LCarets2: 1 0
Ligature2: "'liga' Standard Ligatures lookup 0-1" f j
EndChar

StartChar: uni2116
Encoding: 8470 8470 344
GlifName: uni2116
Width: 4693
Flags: HW
LayerCount: 2
Fore
SplineSet
3543 2335 m 0
 3543 1868 3625 1638 3826 1638 c 0
 4027 1638 4108 1868 4108 2335 c 0
 4108 2802 4027 3031 3826 3031 c 0
 3625 3031 3543 2802 3543 2335 c 0
3072 2335 m 0
 3072 2847 3392 3113 3826 3113 c 0
 4260 3113 4580 2847 4580 2335 c 0
 4580 1823 4260 1556 3826 1556 c 0
 3392 1556 3072 1823 3072 2335 c 0
EndSplineSet
Refer: 85 45 N 1 0 0 1 3088 164 2
Refer: 25 78 N 1 0 0 1 0 0 2
EndChar

StartChar: Euro
Encoding: 8364 8364 345
GlifName: E_uro
Width: 2969
Flags: HW
LayerCount: 2
Fore
SplineSet
2560 2760 m 1
 2472 2862 2265 3016 1962 3016 c 0
 1372 3016 1188 2331 1188 1536 c 0
 1188 660 1417 84 1884 84 c 0
 2273 84 2544 389 2646 729 c 1
 2736 729 l 1
 2630 332 2311 -41 1774 -41 c 0
 1054 -41 450 594 450 1536 c 0
 450 2396 996 3113 1880 3113 c 0
 2442 3113 2786 2756 2786 2482 c 0
 2786 2252 2633 2126 2449 2126 c 0
 2285 2126 2114 2232 2114 2458 c 0
 2114 2662 2269 2786 2449 2786 c 0
 2494 2786 2536 2772 2560 2760 c 1
EndSplineSet
Refer: 88 61 N 1 0 0 1 -123 -287 2
EndChar

